<svg width="1380" height="304" viewBox="0 0 1380 304" fill="none" xmlns="http://www.w3.org/2000/svg">
<g clip-path="url(#clip0_158_27)">
<g filter="url(#filter0_d_158_27)">
<rect x="-1" width="1380" height="304" rx="15" fill="#7065DB"/>
</g>
<path d="M1192 -0.5C1192 4.81854 1190.95 10.085 1188.92 14.9987C1186.88 19.9124 1183.9 24.3771 1180.14 28.1378C1176.38 31.8986 1171.91 34.8818 1167 36.9171C1162.08 38.9524 1156.82 40 1151.5 40C1146.18 40 1140.92 38.9524 1136 36.9171C1131.09 34.8818 1126.62 31.8986 1122.86 28.1378C1119.1 24.377 1116.12 19.9124 1114.08 14.9987C1112.05 10.085 1111 4.81853 1111 -0.500004L1127.67 -0.500002C1127.67 2.62911 1128.29 5.72758 1129.49 8.61851C1130.68 11.5094 1132.44 14.1362 1134.65 16.3488C1136.86 18.5614 1139.49 20.3166 1142.38 21.514C1145.27 22.7115 1148.37 23.3278 1151.5 23.3278C1154.63 23.3278 1157.73 22.7115 1160.62 21.514C1163.51 20.3166 1166.14 18.5614 1168.35 16.3488C1170.56 14.1362 1172.32 11.5094 1173.51 8.61851C1174.71 5.72758 1175.33 2.62911 1175.33 -0.5H1192Z" fill="white" fill-opacity="0.25"/>
<circle cx="213" cy="146" r="136" fill="white" fill-opacity="0.25"/>
<path d="M219.717 143.66C217.114 143.66 214.694 143.183 212.457 142.23C210.257 141.277 208.35 139.957 206.737 138.27C205.16 136.547 204.005 134.548 203.272 132.275L209.487 129.58C210.477 131.927 211.907 133.778 213.777 135.135C215.647 136.455 217.755 137.115 220.102 137.115C221.422 137.115 222.559 136.913 223.512 136.51C224.502 136.07 225.254 135.483 225.767 134.75C226.317 134.017 226.592 133.137 226.592 132.11C226.592 130.9 226.225 129.91 225.492 129.14C224.795 128.333 223.732 127.71 222.302 127.27L214.437 124.74C211.247 123.75 208.845 122.265 207.232 120.285C205.619 118.305 204.812 115.977 204.812 113.3C204.812 110.953 205.38 108.882 206.517 107.085C207.69 105.288 209.304 103.895 211.357 102.905C213.447 101.878 215.83 101.365 218.507 101.365C220.964 101.365 223.219 101.805 225.272 102.685C227.325 103.528 229.085 104.72 230.552 106.26C232.055 107.763 233.174 109.542 233.907 111.595L227.747 114.345C226.94 112.292 225.73 110.715 224.117 109.615C222.504 108.478 220.634 107.91 218.507 107.91C217.26 107.91 216.16 108.13 215.207 108.57C214.254 108.973 213.502 109.56 212.952 110.33C212.439 111.063 212.182 111.943 212.182 112.97C212.182 114.107 212.549 115.115 213.282 115.995C214.015 116.838 215.134 117.498 216.637 117.975L224.172 120.34C227.435 121.403 229.874 122.87 231.487 124.74C233.137 126.61 233.962 128.92 233.962 131.67C233.962 134.017 233.357 136.088 232.147 137.885C230.937 139.682 229.269 141.093 227.142 142.12C225.015 143.147 222.54 143.66 219.717 143.66ZM254.282 143.66C251.202 143.66 248.507 142.963 246.197 141.57C243.887 140.177 242.091 138.288 240.807 135.905C239.524 133.522 238.882 130.882 238.882 127.985C238.882 124.978 239.524 122.32 240.807 120.01C242.127 117.663 243.906 115.812 246.142 114.455C248.416 113.098 250.946 112.42 253.732 112.42C256.079 112.42 258.132 112.805 259.892 113.575C261.689 114.345 263.211 115.408 264.457 116.765C265.704 118.122 266.657 119.68 267.317 121.44C267.977 123.163 268.307 125.033 268.307 127.05C268.307 127.563 268.271 128.095 268.197 128.645C268.161 129.195 268.069 129.672 267.922 130.075H244.822V124.575H263.852L260.442 127.16C260.772 125.473 260.681 123.97 260.167 122.65C259.691 121.33 258.884 120.285 257.747 119.515C256.647 118.745 255.309 118.36 253.732 118.36C252.229 118.36 250.891 118.745 249.717 119.515C248.544 120.248 247.646 121.348 247.022 122.815C246.436 124.245 246.216 125.987 246.362 128.04C246.216 129.873 246.454 131.505 247.077 132.935C247.737 134.328 248.691 135.41 249.937 136.18C251.221 136.95 252.687 137.335 254.337 137.335C255.987 137.335 257.381 136.987 258.517 136.29C259.691 135.593 260.607 134.658 261.267 133.485L267.097 136.345C266.511 137.775 265.594 139.04 264.347 140.14C263.101 141.24 261.616 142.102 259.892 142.725C258.206 143.348 256.336 143.66 254.282 143.66ZM273.769 143V101.365H280.974V143H273.769ZM296.701 143.66C294.611 143.66 292.796 143.312 291.256 142.615C289.716 141.918 288.525 140.928 287.681 139.645C286.838 138.325 286.416 136.803 286.416 135.08C286.416 133.43 286.783 131.963 287.516 130.68C288.25 129.36 289.386 128.26 290.926 127.38C292.466 126.5 294.41 125.877 296.756 125.51L306.546 123.915V129.415L298.131 130.845C296.701 131.102 295.638 131.56 294.941 132.22C294.245 132.88 293.896 133.742 293.896 134.805C293.896 135.832 294.281 136.657 295.051 137.28C295.858 137.867 296.848 138.16 298.021 138.16C299.525 138.16 300.845 137.848 301.981 137.225C303.155 136.565 304.053 135.667 304.676 134.53C305.336 133.393 305.666 132.147 305.666 130.79V123.09C305.666 121.807 305.153 120.743 304.126 119.9C303.136 119.02 301.816 118.58 300.166 118.58C298.626 118.58 297.251 119.002 296.041 119.845C294.868 120.652 294.006 121.733 293.456 123.09L287.571 120.23C288.158 118.653 289.075 117.297 290.321 116.16C291.605 114.987 293.108 114.07 294.831 113.41C296.555 112.75 298.425 112.42 300.441 112.42C302.898 112.42 305.061 112.878 306.931 113.795C308.801 114.675 310.25 115.922 311.276 117.535C312.34 119.112 312.871 120.963 312.871 123.09V143H306.051V137.885L307.591 137.775C306.821 139.058 305.905 140.14 304.841 141.02C303.778 141.863 302.568 142.523 301.211 143C299.855 143.44 298.351 143.66 296.701 143.66ZM319.531 143V113.08H326.296V120.01L325.526 118.855C326.076 116.692 327.176 115.078 328.826 114.015C330.476 112.952 332.419 112.42 334.656 112.42C337.112 112.42 339.276 113.062 341.146 114.345C343.016 115.628 344.226 117.315 344.776 119.405L342.741 119.57C343.657 117.187 345.032 115.408 346.866 114.235C348.699 113.025 350.807 112.42 353.191 112.42C355.317 112.42 357.206 112.897 358.856 113.85C360.542 114.803 361.862 116.142 362.816 117.865C363.769 119.552 364.246 121.513 364.246 123.75V143H357.041V125.455C357.041 124.135 356.802 122.998 356.326 122.045C355.849 121.092 355.189 120.358 354.346 119.845C353.502 119.295 352.476 119.02 351.266 119.02C350.129 119.02 349.121 119.295 348.241 119.845C347.361 120.358 346.682 121.092 346.206 122.045C345.729 122.998 345.491 124.135 345.491 125.455V143H338.286V125.455C338.286 124.135 338.047 122.998 337.571 122.045C337.094 121.092 336.416 120.358 335.536 119.845C334.692 119.295 333.684 119.02 332.511 119.02C331.374 119.02 330.366 119.295 329.486 119.845C328.606 120.358 327.927 121.092 327.451 122.045C326.974 122.998 326.736 124.135 326.736 125.455V143H319.531ZM379.416 143.66C377.326 143.66 375.511 143.312 373.971 142.615C372.431 141.918 371.24 140.928 370.396 139.645C369.553 138.325 369.131 136.803 369.131 135.08C369.131 133.43 369.498 131.963 370.231 130.68C370.965 129.36 372.101 128.26 373.641 127.38C375.181 126.5 377.125 125.877 379.471 125.51L389.261 123.915V129.415L380.846 130.845C379.416 131.102 378.353 131.56 377.656 132.22C376.96 132.88 376.611 133.742 376.611 134.805C376.611 135.832 376.996 136.657 377.766 137.28C378.573 137.867 379.563 138.16 380.736 138.16C382.24 138.16 383.56 137.848 384.696 137.225C385.87 136.565 386.768 135.667 387.391 134.53C388.051 133.393 388.381 132.147 388.381 130.79V123.09C388.381 121.807 387.868 120.743 386.841 119.9C385.851 119.02 384.531 118.58 382.881 118.58C381.341 118.58 379.966 119.002 378.756 119.845C377.583 120.652 376.721 121.733 376.171 123.09L370.286 120.23C370.873 118.653 371.79 117.297 373.036 116.16C374.32 114.987 375.823 114.07 377.546 113.41C379.27 112.75 381.14 112.42 383.156 112.42C385.613 112.42 387.776 112.878 389.646 113.795C391.516 114.675 392.965 115.922 393.991 117.535C395.055 119.112 395.586 120.963 395.586 123.09V143H388.766V137.885L390.306 137.775C389.536 139.058 388.62 140.14 387.556 141.02C386.493 141.863 385.283 142.523 383.926 143C382.57 143.44 381.066 143.66 379.416 143.66ZM415.349 143.33C411.975 143.33 409.354 142.413 407.484 140.58C405.65 138.71 404.734 136.088 404.734 132.715V119.515H399.564V113.08H400.114C401.58 113.08 402.717 112.695 403.524 111.925C404.33 111.155 404.734 110.037 404.734 108.57V106.26H411.939V113.08H418.814V119.515H411.939V132.33C411.939 133.32 412.104 134.163 412.434 134.86C412.8 135.557 413.35 136.088 414.084 136.455C414.854 136.822 415.825 137.005 416.999 137.005C417.255 137.005 417.549 136.987 417.879 136.95C418.245 136.913 418.594 136.877 418.924 136.84V143C418.41 143.073 417.824 143.147 417.164 143.22C416.504 143.293 415.899 143.33 415.349 143.33ZM434.809 143V102.025H448.174C452.5 102.025 456.259 102.905 459.449 104.665C462.675 106.388 465.169 108.79 466.929 111.87C468.689 114.913 469.569 118.452 469.569 122.485C469.569 126.482 468.689 130.038 466.929 133.155C465.169 136.235 462.675 138.655 459.449 140.415C456.259 142.138 452.5 143 448.174 143H434.809ZM442.289 136.4H448.339C451.125 136.4 453.527 135.832 455.544 134.695C457.597 133.522 459.192 131.908 460.329 129.855C461.465 127.765 462.034 125.308 462.034 122.485C462.034 119.625 461.465 117.168 460.329 115.115C459.192 113.062 457.597 111.467 455.544 110.33C453.527 109.193 451.125 108.625 448.339 108.625H442.289V136.4ZM483.884 143.66C481.794 143.66 479.979 143.312 478.439 142.615C476.899 141.918 475.707 140.928 474.864 139.645C474.021 138.325 473.599 136.803 473.599 135.08C473.599 133.43 473.966 131.963 474.699 130.68C475.432 129.36 476.569 128.26 478.109 127.38C479.649 126.5 481.592 125.877 483.939 125.51L493.729 123.915V129.415L485.314 130.845C483.884 131.102 482.821 131.56 482.124 132.22C481.427 132.88 481.079 133.742 481.079 134.805C481.079 135.832 481.464 136.657 482.234 137.28C483.041 137.867 484.031 138.16 485.204 138.16C486.707 138.16 488.027 137.848 489.164 137.225C490.337 136.565 491.236 135.667 491.859 134.53C492.519 133.393 492.849 132.147 492.849 130.79V123.09C492.849 121.807 492.336 120.743 491.309 119.9C490.319 119.02 488.999 118.58 487.349 118.58C485.809 118.58 484.434 119.002 483.224 119.845C482.051 120.652 481.189 121.733 480.639 123.09L474.754 120.23C475.341 118.653 476.257 117.297 477.504 116.16C478.787 114.987 480.291 114.07 482.014 113.41C483.737 112.75 485.607 112.42 487.624 112.42C490.081 112.42 492.244 112.878 494.114 113.795C495.984 114.675 497.432 115.922 498.459 117.535C499.522 119.112 500.054 120.963 500.054 123.09V143H493.234V137.885L494.774 137.775C494.004 139.058 493.087 140.14 492.024 141.02C490.961 141.863 489.751 142.523 488.394 143C487.037 143.44 485.534 143.66 483.884 143.66ZM519.816 143.33C516.443 143.33 513.821 142.413 511.951 140.58C510.118 138.71 509.201 136.088 509.201 132.715V119.515H504.031V113.08H504.581C506.048 113.08 507.185 112.695 507.991 111.925C508.798 111.155 509.201 110.037 509.201 108.57V106.26H516.406V113.08H523.281V119.515H516.406V132.33C516.406 133.32 516.571 134.163 516.901 134.86C517.268 135.557 517.818 136.088 518.551 136.455C519.321 136.822 520.293 137.005 521.466 137.005C521.723 137.005 522.016 136.987 522.346 136.95C522.713 136.913 523.061 136.877 523.391 136.84V143C522.878 143.073 522.291 143.147 521.631 143.22C520.971 143.293 520.366 143.33 519.816 143.33ZM537.864 143.66C535.774 143.66 533.959 143.312 532.419 142.615C530.879 141.918 529.687 140.928 528.844 139.645C528 138.325 527.579 136.803 527.579 135.08C527.579 133.43 527.945 131.963 528.679 130.68C529.412 129.36 530.549 128.26 532.089 127.38C533.629 126.5 535.572 125.877 537.919 125.51L547.709 123.915V129.415L539.294 130.845C537.864 131.102 536.8 131.56 536.104 132.22C535.407 132.88 535.059 133.742 535.059 134.805C535.059 135.832 535.444 136.657 536.214 137.28C537.02 137.867 538.01 138.16 539.184 138.16C540.687 138.16 542.007 137.848 543.144 137.225C544.317 136.565 545.215 135.667 545.839 134.53C546.499 133.393 546.829 132.147 546.829 130.79V123.09C546.829 121.807 546.315 120.743 545.289 119.9C544.299 119.02 542.979 118.58 541.329 118.58C539.789 118.58 538.414 119.002 537.204 119.845C536.03 120.652 535.169 121.733 534.619 123.09L528.734 120.23C529.32 118.653 530.237 117.297 531.484 116.16C532.767 114.987 534.27 114.07 535.994 113.41C537.717 112.75 539.587 112.42 541.604 112.42C544.06 112.42 546.224 112.878 548.094 113.795C549.964 114.675 551.412 115.922 552.439 117.535C553.502 119.112 554.034 120.963 554.034 123.09V143H547.214V137.885L548.754 137.775C547.984 139.058 547.067 140.14 546.004 141.02C544.94 141.863 543.73 142.523 542.374 143C541.017 143.44 539.514 143.66 537.864 143.66ZM560.693 143V113.08H567.458V118.965L566.908 117.92C567.605 116.123 568.741 114.767 570.318 113.85C571.931 112.897 573.801 112.42 575.928 112.42C578.128 112.42 580.071 112.897 581.758 113.85C583.481 114.803 584.82 116.142 585.773 117.865C586.726 119.552 587.203 121.513 587.203 123.75V143H579.998V125.455C579.998 124.135 579.741 122.998 579.228 122.045C578.715 121.092 578 120.358 577.083 119.845C576.203 119.295 575.158 119.02 573.948 119.02C572.775 119.02 571.73 119.295 570.813 119.845C569.896 120.358 569.181 121.092 568.668 122.045C568.155 122.998 567.898 124.135 567.898 125.455V143H560.693ZM607.815 155.1C605.579 155.1 603.507 154.733 601.6 154C599.694 153.267 598.044 152.24 596.65 150.92C595.294 149.637 594.304 148.115 593.68 146.355L600.39 143.825C600.83 145.218 601.692 146.337 602.975 147.18C604.295 148.06 605.909 148.5 607.815 148.5C609.282 148.5 610.565 148.225 611.665 147.675C612.802 147.125 613.682 146.318 614.305 145.255C614.929 144.228 615.24 142.982 615.24 141.515V134.695L616.615 136.345C615.589 138.142 614.214 139.498 612.49 140.415C610.767 141.332 608.805 141.79 606.605 141.79C603.819 141.79 601.325 141.148 599.125 139.865C596.925 138.582 595.202 136.822 593.955 134.585C592.709 132.348 592.085 129.837 592.085 127.05C592.085 124.227 592.709 121.715 593.955 119.515C595.202 117.315 596.907 115.592 599.07 114.345C601.234 113.062 603.69 112.42 606.44 112.42C608.677 112.42 610.639 112.897 612.325 113.85C614.049 114.767 615.479 116.105 616.615 117.865L615.625 119.68V113.08H622.445V141.515C622.445 144.118 621.804 146.447 620.52 148.5C619.274 150.553 617.55 152.167 615.35 153.34C613.187 154.513 610.675 155.1 607.815 155.1ZM607.485 135.135C609.025 135.135 610.364 134.805 611.5 134.145C612.674 133.448 613.59 132.495 614.25 131.285C614.91 130.075 615.24 128.682 615.24 127.105C615.24 125.565 614.892 124.19 614.195 122.98C613.535 121.733 612.619 120.762 611.445 120.065C610.309 119.368 608.989 119.02 607.485 119.02C605.982 119.02 604.625 119.368 603.415 120.065C602.205 120.762 601.252 121.733 600.555 122.98C599.895 124.19 599.565 125.565 599.565 127.105C599.565 128.645 599.895 130.02 600.555 131.23C601.252 132.44 602.187 133.393 603.36 134.09C604.57 134.787 605.945 135.135 607.485 135.135ZM652.865 143.66C649.968 143.66 647.383 142.982 645.11 141.625C642.836 140.232 641.04 138.343 639.72 135.96C638.4 133.577 637.74 130.937 637.74 128.04C637.74 125.107 638.4 122.467 639.72 120.12C641.04 117.773 642.836 115.903 645.11 114.51C647.42 113.117 649.986 112.42 652.81 112.42C655.083 112.42 657.1 112.878 658.86 113.795C660.656 114.675 662.068 115.922 663.095 117.535L661.995 119.02V101.365H669.2V143H662.38V137.225L663.15 138.655C662.123 140.268 660.693 141.515 658.86 142.395C657.026 143.238 655.028 143.66 652.865 143.66ZM653.635 137.06C655.285 137.06 656.733 136.675 657.98 135.905C659.226 135.135 660.198 134.072 660.895 132.715C661.628 131.358 661.995 129.8 661.995 128.04C661.995 126.317 661.628 124.777 660.895 123.42C660.198 122.027 659.226 120.945 657.98 120.175C656.733 119.405 655.285 119.02 653.635 119.02C652.021 119.02 650.573 119.423 649.29 120.23C648.006 121 646.998 122.063 646.265 123.42C645.568 124.74 645.22 126.28 645.22 128.04C645.22 129.8 645.568 131.358 646.265 132.715C646.998 134.072 648.006 135.135 649.29 135.905C650.573 136.675 652.021 137.06 653.635 137.06ZM675.903 143V113.08H683.108V143H675.903ZM675.903 109.725V102.025H683.108V109.725H675.903ZM714.771 143.66C712.167 143.66 709.747 143.183 707.511 142.23C705.311 141.277 703.404 139.957 701.791 138.27C700.214 136.547 699.059 134.548 698.326 132.275L704.541 129.58C705.531 131.927 706.961 133.778 708.831 135.135C710.701 136.455 712.809 137.115 715.156 137.115C716.476 137.115 717.612 136.913 718.566 136.51C719.556 136.07 720.307 135.483 720.821 134.75C721.371 134.017 721.646 133.137 721.646 132.11C721.646 130.9 721.279 129.91 720.546 129.14C719.849 128.333 718.786 127.71 717.356 127.27L709.491 124.74C706.301 123.75 703.899 122.265 702.286 120.285C700.672 118.305 699.866 115.977 699.866 113.3C699.866 110.953 700.434 108.882 701.571 107.085C702.744 105.288 704.357 103.895 706.411 102.905C708.501 101.878 710.884 101.365 713.561 101.365C716.017 101.365 718.272 101.805 720.326 102.685C722.379 103.528 724.139 104.72 725.606 106.26C727.109 107.763 728.227 109.542 728.961 111.595L722.801 114.345C721.994 112.292 720.784 110.715 719.171 109.615C717.557 108.478 715.687 107.91 713.561 107.91C712.314 107.91 711.214 108.13 710.261 108.57C709.307 108.973 708.556 109.56 708.006 110.33C707.492 111.063 707.236 111.943 707.236 112.97C707.236 114.107 707.602 115.115 708.336 115.995C709.069 116.838 710.187 117.498 711.691 117.975L719.226 120.34C722.489 121.403 724.927 122.87 726.541 124.74C728.191 126.61 729.016 128.92 729.016 131.67C729.016 134.017 728.411 136.088 727.201 137.885C725.991 139.682 724.322 141.093 722.196 142.12C720.069 143.147 717.594 143.66 714.771 143.66ZM743.952 143.66C741.862 143.66 740.047 143.312 738.507 142.615C736.967 141.918 735.776 140.928 734.932 139.645C734.089 138.325 733.667 136.803 733.667 135.08C733.667 133.43 734.034 131.963 734.767 130.68C735.501 129.36 736.637 128.26 738.177 127.38C739.717 126.5 741.661 125.877 744.007 125.51L753.797 123.915V129.415L745.382 130.845C743.952 131.102 742.889 131.56 742.192 132.22C741.496 132.88 741.147 133.742 741.147 134.805C741.147 135.832 741.532 136.657 742.302 137.28C743.109 137.867 744.099 138.16 745.272 138.16C746.776 138.16 748.096 137.848 749.232 137.225C750.406 136.565 751.304 135.667 751.927 134.53C752.587 133.393 752.917 132.147 752.917 130.79V123.09C752.917 121.807 752.404 120.743 751.377 119.9C750.387 119.02 749.067 118.58 747.417 118.58C745.877 118.58 744.502 119.002 743.292 119.845C742.119 120.652 741.257 121.733 740.707 123.09L734.822 120.23C735.409 118.653 736.326 117.297 737.572 116.16C738.856 114.987 740.359 114.07 742.082 113.41C743.806 112.75 745.676 112.42 747.692 112.42C750.149 112.42 752.312 112.878 754.182 113.795C756.052 114.675 757.501 115.922 758.527 117.535C759.591 119.112 760.122 120.963 760.122 123.09V143H753.302V137.885L754.842 137.775C754.072 139.058 753.156 140.14 752.092 141.02C751.029 141.863 749.819 142.523 748.462 143C747.106 143.44 745.602 143.66 743.952 143.66ZM766.782 143V113.08H773.547V119.735L772.997 118.745C773.693 116.508 774.775 114.95 776.242 114.07C777.745 113.19 779.542 112.75 781.632 112.75H783.392V119.13H780.807C778.753 119.13 777.103 119.772 775.857 121.055C774.61 122.302 773.987 124.062 773.987 126.335V143H766.782ZM796.428 143.66C794.338 143.66 792.523 143.312 790.983 142.615C789.443 141.918 788.251 140.928 787.408 139.645C786.565 138.325 786.143 136.803 786.143 135.08C786.143 133.43 786.51 131.963 787.243 130.68C787.976 129.36 789.113 128.26 790.653 127.38C792.193 126.5 794.136 125.877 796.483 125.51L806.273 123.915V129.415L797.858 130.845C796.428 131.102 795.365 131.56 794.668 132.22C793.971 132.88 793.623 133.742 793.623 134.805C793.623 135.832 794.008 136.657 794.778 137.28C795.585 137.867 796.575 138.16 797.748 138.16C799.251 138.16 800.571 137.848 801.708 137.225C802.881 136.565 803.78 135.667 804.403 134.53C805.063 133.393 805.393 132.147 805.393 130.79V123.09C805.393 121.807 804.88 120.743 803.853 119.9C802.863 119.02 801.543 118.58 799.893 118.58C798.353 118.58 796.978 119.002 795.768 119.845C794.595 120.652 793.733 121.733 793.183 123.09L787.298 120.23C787.885 118.653 788.801 117.297 790.048 116.16C791.331 114.987 792.835 114.07 794.558 113.41C796.281 112.75 798.151 112.42 800.168 112.42C802.625 112.42 804.788 112.878 806.658 113.795C808.528 114.675 809.976 115.922 811.003 117.535C812.066 119.112 812.598 120.963 812.598 123.09V143H805.778V137.885L807.318 137.775C806.548 139.058 805.631 140.14 804.568 141.02C803.505 141.863 802.295 142.523 800.938 143C799.581 143.44 798.078 143.66 796.428 143.66ZM819.257 143V113.08H826.022V118.965L825.472 117.92C826.169 116.123 827.306 114.767 828.882 113.85C830.496 112.897 832.366 112.42 834.492 112.42C836.692 112.42 838.636 112.897 840.322 113.85C842.046 114.803 843.384 116.142 844.337 117.865C845.291 119.552 845.767 121.513 845.767 123.75V143H838.562V125.455C838.562 124.135 838.306 122.998 837.792 122.045C837.279 121.092 836.564 120.358 835.647 119.845C834.767 119.295 833.722 119.02 832.512 119.02C831.339 119.02 830.294 119.295 829.377 119.845C828.461 120.358 827.746 121.092 827.232 122.045C826.719 122.998 826.462 124.135 826.462 125.455V143H819.257ZM860.935 143.66C858.845 143.66 857.03 143.312 855.49 142.615C853.95 141.918 852.758 140.928 851.915 139.645C851.072 138.325 850.65 136.803 850.65 135.08C850.65 133.43 851.017 131.963 851.75 130.68C852.483 129.36 853.62 128.26 855.16 127.38C856.7 126.5 858.643 125.877 860.99 125.51L870.78 123.915V129.415L862.365 130.845C860.935 131.102 859.872 131.56 859.175 132.22C858.478 132.88 858.13 133.742 858.13 134.805C858.13 135.832 858.515 136.657 859.285 137.28C860.092 137.867 861.082 138.16 862.255 138.16C863.758 138.16 865.078 137.848 866.215 137.225C867.388 136.565 868.287 135.667 868.91 134.53C869.57 133.393 869.9 132.147 869.9 130.79V123.09C869.9 121.807 869.387 120.743 868.36 119.9C867.37 119.02 866.05 118.58 864.4 118.58C862.86 118.58 861.485 119.002 860.275 119.845C859.102 120.652 858.24 121.733 857.69 123.09L851.805 120.23C852.392 118.653 853.308 117.297 854.555 116.16C855.838 114.987 857.342 114.07 859.065 113.41C860.788 112.75 862.658 112.42 864.675 112.42C867.132 112.42 869.295 112.878 871.165 113.795C873.035 114.675 874.483 115.922 875.51 117.535C876.573 119.112 877.105 120.963 877.105 123.09V143H870.285V137.885L871.825 137.775C871.055 139.058 870.138 140.14 869.075 141.02C868.012 141.863 866.802 142.523 865.445 143C864.088 143.44 862.585 143.66 860.935 143.66ZM894.145 143V102.025H909.435C912.221 102.025 914.678 102.538 916.805 103.565C918.968 104.555 920.655 106.022 921.865 107.965C923.075 109.872 923.68 112.2 923.68 114.95C923.68 117.663 923.056 119.992 921.81 121.935C920.6 123.842 918.931 125.308 916.805 126.335C914.678 127.362 912.221 127.875 909.435 127.875H901.625V143H894.145ZM901.625 121.275H909.545C910.901 121.275 912.075 121.018 913.065 120.505C914.055 119.955 914.825 119.203 915.375 118.25C915.925 117.297 916.2 116.197 916.2 114.95C916.2 113.667 915.925 112.567 915.375 111.65C914.825 110.697 914.055 109.963 913.065 109.45C912.075 108.9 910.901 108.625 909.545 108.625H901.625V121.275ZM929.204 143V113.08H935.969V119.735L935.419 118.745C936.115 116.508 937.197 114.95 938.664 114.07C940.167 113.19 941.964 112.75 944.054 112.75H945.814V119.13H943.229C941.175 119.13 939.525 119.772 938.279 121.055C937.032 122.302 936.409 124.062 936.409 126.335V143H929.204ZM958.85 143.66C956.76 143.66 954.945 143.312 953.405 142.615C951.865 141.918 950.673 140.928 949.83 139.645C948.987 138.325 948.565 136.803 948.565 135.08C948.565 133.43 948.932 131.963 949.665 130.68C950.398 129.36 951.535 128.26 953.075 127.38C954.615 126.5 956.558 125.877 958.905 125.51L968.695 123.915V129.415L960.28 130.845C958.85 131.102 957.787 131.56 957.09 132.22C956.393 132.88 956.045 133.742 956.045 134.805C956.045 135.832 956.43 136.657 957.2 137.28C958.007 137.867 958.997 138.16 960.17 138.16C961.673 138.16 962.993 137.848 964.13 137.225C965.303 136.565 966.202 135.667 966.825 134.53C967.485 133.393 967.815 132.147 967.815 130.79V123.09C967.815 121.807 967.302 120.743 966.275 119.9C965.285 119.02 963.965 118.58 962.315 118.58C960.775 118.58 959.4 119.002 958.19 119.845C957.017 120.652 956.155 121.733 955.605 123.09L949.72 120.23C950.307 118.653 951.223 117.297 952.47 116.16C953.753 114.987 955.257 114.07 956.98 113.41C958.703 112.75 960.573 112.42 962.59 112.42C965.047 112.42 967.21 112.878 969.08 113.795C970.95 114.675 972.398 115.922 973.425 117.535C974.488 119.112 975.02 120.963 975.02 123.09V143H968.2V137.885L969.74 137.775C968.97 139.058 968.053 140.14 966.99 141.02C965.927 141.863 964.717 142.523 963.36 143C962.003 143.44 960.5 143.66 958.85 143.66ZM993.064 143.66C989.874 143.66 987.088 142.908 984.704 141.405C982.358 139.865 980.744 137.793 979.864 135.19L985.254 132.605C986.024 134.292 987.088 135.612 988.444 136.565C989.838 137.518 991.378 137.995 993.064 137.995C994.384 137.995 995.429 137.702 996.199 137.115C996.969 136.528 997.354 135.758 997.354 134.805C997.354 134.218 997.189 133.742 996.859 133.375C996.566 132.972 996.144 132.642 995.594 132.385C995.081 132.092 994.513 131.853 993.889 131.67L988.994 130.295C986.464 129.562 984.539 128.443 983.219 126.94C981.936 125.437 981.294 123.658 981.294 121.605C981.294 119.772 981.753 118.177 982.669 116.82C983.623 115.427 984.924 114.345 986.574 113.575C988.261 112.805 990.186 112.42 992.349 112.42C995.173 112.42 997.666 113.098 999.829 114.455C1001.99 115.812 1003.53 117.718 1004.45 120.175L998.949 122.76C998.436 121.403 997.574 120.322 996.364 119.515C995.154 118.708 993.798 118.305 992.294 118.305C991.084 118.305 990.131 118.58 989.434 119.13C988.738 119.68 988.389 120.395 988.389 121.275C988.389 121.825 988.536 122.302 988.829 122.705C989.123 123.108 989.526 123.438 990.039 123.695C990.589 123.952 991.213 124.19 991.909 124.41L996.694 125.84C999.151 126.573 1001.04 127.673 1002.36 129.14C1003.72 130.607 1004.39 132.403 1004.39 134.53C1004.39 136.327 1003.92 137.922 1002.96 139.315C1002.01 140.672 1000.69 141.735 999.004 142.505C997.318 143.275 995.338 143.66 993.064 143.66ZM1019.01 143.66C1016.92 143.66 1015.1 143.312 1013.56 142.615C1012.02 141.918 1010.83 140.928 1009.99 139.645C1009.14 138.325 1008.72 136.803 1008.72 135.08C1008.72 133.43 1009.09 131.963 1009.82 130.68C1010.55 129.36 1011.69 128.26 1013.23 127.38C1014.77 126.5 1016.71 125.877 1019.06 125.51L1028.85 123.915V129.415L1020.44 130.845C1019.01 131.102 1017.94 131.56 1017.25 132.22C1016.55 132.88 1016.2 133.742 1016.2 134.805C1016.2 135.832 1016.59 136.657 1017.36 137.28C1018.16 137.867 1019.15 138.16 1020.33 138.16C1021.83 138.16 1023.15 137.848 1024.29 137.225C1025.46 136.565 1026.36 135.667 1026.98 134.53C1027.64 133.393 1027.97 132.147 1027.97 130.79V123.09C1027.97 121.807 1027.46 120.743 1026.43 119.9C1025.44 119.02 1024.12 118.58 1022.47 118.58C1020.93 118.58 1019.56 119.002 1018.35 119.845C1017.17 120.652 1016.31 121.733 1015.76 123.09L1009.88 120.23C1010.46 118.653 1011.38 117.297 1012.63 116.16C1013.91 114.987 1015.41 114.07 1017.14 113.41C1018.86 112.75 1020.73 112.42 1022.75 112.42C1025.2 112.42 1027.37 112.878 1029.24 113.795C1031.11 114.675 1032.55 115.922 1033.58 117.535C1034.64 119.112 1035.18 120.963 1035.18 123.09V143H1028.36V137.885L1029.9 137.775C1029.13 139.058 1028.21 140.14 1027.15 141.02C1026.08 141.863 1024.87 142.523 1023.52 143C1022.16 143.44 1020.66 143.66 1019.01 143.66ZM1041.84 143V113.08H1048.6V119.735L1048.05 118.745C1048.75 116.508 1049.83 114.95 1051.3 114.07C1052.8 113.19 1054.6 112.75 1056.69 112.75H1058.45V119.13H1055.86C1053.81 119.13 1052.16 119.772 1050.91 121.055C1049.66 122.302 1049.04 124.062 1049.04 126.335V143H1041.84ZM1071.48 143.66C1069.39 143.66 1067.58 143.312 1066.04 142.615C1064.5 141.918 1063.31 140.928 1062.46 139.645C1061.62 138.325 1061.2 136.803 1061.2 135.08C1061.2 133.43 1061.56 131.963 1062.3 130.68C1063.03 129.36 1064.17 128.26 1065.71 127.38C1067.25 126.5 1069.19 125.877 1071.54 125.51L1081.33 123.915V129.415L1072.91 130.845C1071.48 131.102 1070.42 131.56 1069.72 132.22C1069.03 132.88 1068.68 133.742 1068.68 134.805C1068.68 135.832 1069.06 136.657 1069.83 137.28C1070.64 137.867 1071.63 138.16 1072.8 138.16C1074.31 138.16 1075.63 137.848 1076.76 137.225C1077.94 136.565 1078.83 135.667 1079.46 134.53C1080.12 133.393 1080.45 132.147 1080.45 130.79V123.09C1080.45 121.807 1079.93 120.743 1078.91 119.9C1077.92 119.02 1076.6 118.58 1074.95 118.58C1073.41 118.58 1072.03 119.002 1070.82 119.845C1069.65 120.652 1068.79 121.733 1068.24 123.09L1062.35 120.23C1062.94 118.653 1063.86 117.297 1065.1 116.16C1066.39 114.987 1067.89 114.07 1069.61 113.41C1071.34 112.75 1073.21 112.42 1075.22 112.42C1077.68 112.42 1079.84 112.878 1081.71 113.795C1083.58 114.675 1085.03 115.922 1086.06 117.535C1087.12 119.112 1087.65 120.963 1087.65 123.09V143H1080.83V137.885L1082.37 137.775C1081.6 139.058 1080.69 140.14 1079.62 141.02C1078.56 141.863 1077.35 142.523 1075.99 143C1074.64 143.44 1073.13 143.66 1071.48 143.66ZM1094.31 143V113.08H1101.08V118.965L1100.53 117.92C1101.22 116.123 1102.36 114.767 1103.94 113.85C1105.55 112.897 1107.42 112.42 1109.55 112.42C1111.75 112.42 1113.69 112.897 1115.38 113.85C1117.1 114.803 1118.44 116.142 1119.39 117.865C1120.34 119.552 1120.82 121.513 1120.82 123.75V143H1113.62V125.455C1113.62 124.135 1113.36 122.998 1112.85 122.045C1112.33 121.092 1111.62 120.358 1110.7 119.845C1109.82 119.295 1108.78 119.02 1107.57 119.02C1106.39 119.02 1105.35 119.295 1104.43 119.845C1103.51 120.358 1102.8 121.092 1102.29 122.045C1101.77 122.998 1101.52 124.135 1101.52 125.455V143H1094.31ZM1135.99 143.66C1133.9 143.66 1132.08 143.312 1130.54 142.615C1129 141.918 1127.81 140.928 1126.97 139.645C1126.13 138.325 1125.7 136.803 1125.7 135.08C1125.7 133.43 1126.07 131.963 1126.8 130.68C1127.54 129.36 1128.67 128.26 1130.21 127.38C1131.75 126.5 1133.7 125.877 1136.04 125.51L1145.83 123.915V129.415L1137.42 130.845C1135.99 131.102 1134.93 131.56 1134.23 132.22C1133.53 132.88 1133.18 133.742 1133.18 134.805C1133.18 135.832 1133.57 136.657 1134.34 137.28C1135.15 137.867 1136.14 138.16 1137.31 138.16C1138.81 138.16 1140.13 137.848 1141.27 137.225C1142.44 136.565 1143.34 135.667 1143.96 134.53C1144.62 133.393 1144.95 132.147 1144.95 130.79V123.09C1144.95 121.807 1144.44 120.743 1143.41 119.9C1142.42 119.02 1141.1 118.58 1139.45 118.58C1137.91 118.58 1136.54 119.002 1135.33 119.845C1134.16 120.652 1133.29 121.733 1132.74 123.09L1126.86 120.23C1127.45 118.653 1128.36 117.297 1129.61 116.16C1130.89 114.987 1132.4 114.07 1134.12 113.41C1135.84 112.75 1137.71 112.42 1139.73 112.42C1142.19 112.42 1144.35 112.878 1146.22 113.795C1148.09 114.675 1149.54 115.922 1150.56 117.535C1151.63 119.112 1152.16 120.963 1152.16 123.09V143H1145.34V137.885L1146.88 137.775C1146.11 139.058 1145.19 140.14 1144.13 141.02C1143.07 141.863 1141.86 142.523 1140.5 143C1139.14 143.44 1137.64 143.66 1135.99 143.66ZM1162.5 130.57L1162.01 102.025H1169.32L1168.83 130.57H1162.5ZM1162.01 143V135.3H1169.32V143H1162.01Z" fill="white"/>
<path d="M240.975 210V187.65H243.915V200.22L243.195 199.92L253.875 187.65H257.565L248.595 198L248.745 195.9L258.015 210H254.505L247.425 199.38L243.915 203.4V210H240.975ZM267.363 210.36C265.803 210.36 264.413 209.99 263.193 209.25C261.973 208.51 261.013 207.5 260.313 206.22C259.613 204.92 259.263 203.47 259.263 201.87C259.263 200.25 259.603 198.81 260.283 197.55C260.983 196.29 261.923 195.3 263.103 194.58C264.303 193.84 265.643 193.47 267.123 193.47C268.323 193.47 269.383 193.69 270.303 194.13C271.243 194.55 272.033 195.13 272.673 195.87C273.333 196.59 273.833 197.42 274.173 198.36C274.533 199.28 274.713 200.24 274.713 201.24C274.713 201.46 274.693 201.71 274.653 201.99C274.633 202.25 274.603 202.5 274.563 202.74H261.303V200.34H272.943L271.623 201.42C271.803 200.38 271.703 199.45 271.323 198.63C270.943 197.81 270.383 197.16 269.643 196.68C268.903 196.2 268.063 195.96 267.123 195.96C266.183 195.96 265.323 196.2 264.543 196.68C263.763 197.16 263.153 197.85 262.713 198.75C262.293 199.63 262.123 200.68 262.203 201.9C262.123 203.08 262.303 204.12 262.743 205.02C263.203 205.9 263.843 206.59 264.663 207.09C265.503 207.57 266.413 207.81 267.393 207.81C268.473 207.81 269.383 207.56 270.123 207.06C270.863 206.56 271.463 205.92 271.923 205.14L274.263 206.34C273.943 207.08 273.443 207.76 272.763 208.38C272.103 208.98 271.313 209.46 270.393 209.82C269.493 210.18 268.483 210.36 267.363 210.36ZM278.35 210V187.29H281.14V210H278.35ZM293.15 210.36C291.59 210.36 290.18 210 288.92 209.28C287.66 208.54 286.66 207.53 285.92 206.25C285.18 204.97 284.81 203.52 284.81 201.9C284.81 200.28 285.17 198.84 285.89 197.58C286.63 196.32 287.63 195.32 288.89 194.58C290.15 193.84 291.57 193.47 293.15 193.47C294.71 193.47 296.12 193.84 297.38 194.58C298.64 195.3 299.63 196.29 300.35 197.55C301.09 198.81 301.46 200.26 301.46 201.9C301.46 203.54 301.08 205 300.32 206.28C299.56 207.54 298.55 208.54 297.29 209.28C296.05 210 294.67 210.36 293.15 210.36ZM293.15 207.66C294.15 207.66 295.05 207.41 295.85 206.91C296.67 206.41 297.31 205.72 297.77 204.84C298.25 203.96 298.49 202.98 298.49 201.9C298.49 200.8 298.25 199.83 297.77 198.99C297.31 198.13 296.67 197.45 295.85 196.95C295.05 196.43 294.15 196.17 293.15 196.17C292.13 196.17 291.21 196.43 290.39 196.95C289.59 197.45 288.95 198.13 288.47 198.99C287.99 199.83 287.75 200.8 287.75 201.9C287.75 202.98 287.99 203.96 288.47 204.84C288.95 205.72 289.59 206.41 290.39 206.91C291.21 207.41 292.13 207.66 293.15 207.66ZM305.098 210V187.29H307.888V210H305.098ZM316.958 210.36C315.898 210.36 314.958 210.17 314.138 209.79C313.338 209.39 312.708 208.85 312.248 208.17C311.788 207.47 311.558 206.67 311.558 205.77C311.558 204.91 311.738 204.14 312.098 203.46C312.478 202.76 313.058 202.17 313.838 201.69C314.638 201.21 315.638 200.87 316.838 200.67L322.838 199.68V202.02L317.468 202.92C316.428 203.1 315.668 203.43 315.188 203.91C314.728 204.39 314.498 204.98 314.498 205.68C314.498 206.34 314.758 206.89 315.278 207.33C315.818 207.77 316.488 207.99 317.288 207.99C318.308 207.99 319.188 207.78 319.928 207.36C320.688 206.92 321.278 206.33 321.698 205.59C322.138 204.85 322.358 204.03 322.358 203.13V199.02C322.358 198.14 322.028 197.43 321.368 196.89C320.728 196.33 319.878 196.05 318.818 196.05C317.898 196.05 317.078 196.29 316.358 196.77C315.658 197.23 315.138 197.85 314.798 198.63L312.368 197.37C312.668 196.63 313.148 195.97 313.808 195.39C314.468 194.79 315.238 194.32 316.118 193.98C316.998 193.64 317.918 193.47 318.878 193.47C320.118 193.47 321.208 193.71 322.148 194.19C323.088 194.65 323.818 195.3 324.338 196.14C324.878 196.96 325.148 197.92 325.148 199.02V210H322.418V206.94L322.928 207.12C322.588 207.76 322.128 208.32 321.548 208.8C320.968 209.28 320.288 209.66 319.508 209.94C318.728 210.22 317.878 210.36 316.958 210.36ZM342.009 210.36C340.489 210.36 339.119 209.99 337.899 209.25C336.699 208.51 335.749 207.5 335.049 206.22C334.349 204.94 333.999 203.51 333.999 201.93C333.999 200.31 334.349 198.87 335.049 197.61C335.749 196.33 336.699 195.32 337.899 194.58C339.119 193.84 340.489 193.47 342.009 193.47C343.349 193.47 344.539 193.76 345.579 194.34C346.619 194.9 347.439 195.66 348.039 196.62L347.589 197.31V187.29H350.409V210H347.679V206.55L348.039 207.03C347.479 208.09 346.659 208.91 345.579 209.49C344.519 210.07 343.329 210.36 342.009 210.36ZM342.249 207.66C343.269 207.66 344.179 207.41 344.979 206.91C345.779 206.41 346.409 205.73 346.869 204.87C347.349 203.99 347.589 203.01 347.589 201.93C347.589 200.83 347.349 199.85 346.869 198.99C346.409 198.11 345.779 197.42 344.979 196.92C344.179 196.42 343.269 196.17 342.249 196.17C341.249 196.17 340.339 196.43 339.519 196.95C338.719 197.45 338.089 198.13 337.629 198.99C337.169 199.83 336.939 200.81 336.939 201.93C336.939 203.01 337.169 203.99 337.629 204.87C338.089 205.73 338.719 206.41 339.519 206.91C340.319 207.41 341.229 207.66 342.249 207.66ZM359.467 210.36C358.407 210.36 357.467 210.17 356.647 209.79C355.847 209.39 355.217 208.85 354.757 208.17C354.297 207.47 354.067 206.67 354.067 205.77C354.067 204.91 354.247 204.14 354.607 203.46C354.987 202.76 355.567 202.17 356.347 201.69C357.147 201.21 358.147 200.87 359.347 200.67L365.347 199.68V202.02L359.977 202.92C358.937 203.1 358.177 203.43 357.697 203.91C357.237 204.39 357.007 204.98 357.007 205.68C357.007 206.34 357.267 206.89 357.787 207.33C358.327 207.77 358.997 207.99 359.797 207.99C360.817 207.99 361.697 207.78 362.437 207.36C363.197 206.92 363.787 206.33 364.207 205.59C364.647 204.85 364.867 204.03 364.867 203.13V199.02C364.867 198.14 364.537 197.43 363.877 196.89C363.237 196.33 362.387 196.05 361.327 196.05C360.407 196.05 359.587 196.29 358.867 196.77C358.167 197.23 357.647 197.85 357.307 198.63L354.877 197.37C355.177 196.63 355.657 195.97 356.317 195.39C356.977 194.79 357.747 194.32 358.627 193.98C359.507 193.64 360.427 193.47 361.387 193.47C362.627 193.47 363.717 193.71 364.657 194.19C365.597 194.65 366.327 195.3 366.847 196.14C367.387 196.96 367.657 197.92 367.657 199.02V210H364.927V206.94L365.437 207.12C365.097 207.76 364.637 208.32 364.057 208.8C363.477 209.28 362.797 209.66 362.017 209.94C361.237 210.22 360.387 210.36 359.467 210.36ZM371.983 210V193.83H374.713V196.98L374.263 196.71C374.663 195.69 375.303 194.9 376.183 194.34C377.083 193.76 378.133 193.47 379.333 193.47C380.493 193.47 381.523 193.73 382.423 194.25C383.343 194.77 384.063 195.49 384.583 196.41C385.123 197.33 385.393 198.37 385.393 199.53V210H382.573V200.43C382.573 199.53 382.413 198.77 382.093 198.15C381.773 197.53 381.313 197.05 380.713 196.71C380.133 196.35 379.463 196.17 378.703 196.17C377.943 196.17 377.263 196.35 376.663 196.71C376.083 197.05 375.623 197.54 375.283 198.18C374.943 198.8 374.773 199.55 374.773 200.43V210H371.983ZM399.311 210.36C398.251 210.36 397.311 210.17 396.491 209.79C395.691 209.39 395.061 208.85 394.601 208.17C394.141 207.47 393.911 206.67 393.911 205.77C393.911 204.91 394.091 204.14 394.451 203.46C394.831 202.76 395.411 202.17 396.191 201.69C396.991 201.21 397.991 200.87 399.191 200.67L405.191 199.68V202.02L399.821 202.92C398.781 203.1 398.021 203.43 397.541 203.91C397.081 204.39 396.851 204.98 396.851 205.68C396.851 206.34 397.111 206.89 397.631 207.33C398.171 207.77 398.841 207.99 399.641 207.99C400.661 207.99 401.541 207.78 402.281 207.36C403.041 206.92 403.631 206.33 404.051 205.59C404.491 204.85 404.711 204.03 404.711 203.13V199.02C404.711 198.14 404.381 197.43 403.721 196.89C403.081 196.33 402.231 196.05 401.171 196.05C400.251 196.05 399.431 196.29 398.711 196.77C398.011 197.23 397.491 197.85 397.151 198.63L394.721 197.37C395.021 196.63 395.501 195.97 396.161 195.39C396.821 194.79 397.591 194.32 398.471 193.98C399.351 193.64 400.271 193.47 401.231 193.47C402.471 193.47 403.561 193.71 404.501 194.19C405.441 194.65 406.171 195.3 406.691 196.14C407.231 196.96 407.501 197.92 407.501 199.02V210H404.771V206.94L405.281 207.12C404.941 207.76 404.481 208.32 403.901 208.8C403.321 209.28 402.641 209.66 401.861 209.94C401.081 210.22 400.231 210.36 399.311 210.36ZM411.827 210V187.29H414.617V202.86L413.477 202.59L422.057 193.83H425.627L419.417 200.34L426.047 210H422.747L416.687 201.24L418.427 201.15L413.717 206.07L414.617 204.03V210H411.827ZM434.346 210.36C432.726 210.36 431.316 209.96 430.116 209.16C428.916 208.36 428.066 207.28 427.566 205.92L429.786 204.84C430.246 205.8 430.876 206.56 431.676 207.12C432.476 207.68 433.366 207.96 434.346 207.96C435.226 207.96 435.956 207.75 436.536 207.33C437.116 206.91 437.406 206.36 437.406 205.68C437.406 205.2 437.266 204.82 436.986 204.54C436.726 204.24 436.406 204.01 436.026 203.85C435.646 203.67 435.296 203.54 434.976 203.46L432.546 202.77C431.086 202.35 430.016 201.75 429.336 200.97C428.676 200.19 428.346 199.28 428.346 198.24C428.346 197.28 428.586 196.45 429.066 195.75C429.566 195.03 430.236 194.47 431.076 194.07C431.936 193.67 432.896 193.47 433.956 193.47C435.376 193.47 436.646 193.83 437.766 194.55C438.906 195.27 439.716 196.28 440.196 197.58L437.916 198.63C437.556 197.79 437.016 197.13 436.296 196.65C435.576 196.15 434.766 195.9 433.866 195.9C433.046 195.9 432.396 196.11 431.916 196.53C431.436 196.93 431.196 197.44 431.196 198.06C431.196 198.52 431.316 198.9 431.556 199.2C431.796 199.48 432.086 199.7 432.426 199.86C432.766 200 433.096 200.12 433.416 200.22L436.056 201C437.376 201.38 438.396 201.97 439.116 202.77C439.856 203.57 440.226 204.53 440.226 205.65C440.226 206.55 439.976 207.36 439.476 208.08C438.976 208.8 438.286 209.36 437.406 209.76C436.526 210.16 435.506 210.36 434.346 210.36ZM451.318 210.36C449.758 210.36 448.368 209.99 447.148 209.25C445.928 208.51 444.968 207.5 444.268 206.22C443.568 204.92 443.218 203.47 443.218 201.87C443.218 200.25 443.558 198.81 444.238 197.55C444.938 196.29 445.878 195.3 447.058 194.58C448.258 193.84 449.598 193.47 451.078 193.47C452.278 193.47 453.338 193.69 454.258 194.13C455.198 194.55 455.988 195.13 456.628 195.87C457.288 196.59 457.788 197.42 458.128 198.36C458.488 199.28 458.668 200.24 458.668 201.24C458.668 201.46 458.648 201.71 458.608 201.99C458.588 202.25 458.558 202.5 458.518 202.74H445.258V200.34H456.898L455.578 201.42C455.758 200.38 455.658 199.45 455.278 198.63C454.898 197.81 454.338 197.16 453.598 196.68C452.858 196.2 452.018 195.96 451.078 195.96C450.138 195.96 449.278 196.2 448.498 196.68C447.718 197.16 447.108 197.85 446.668 198.75C446.248 199.63 446.078 200.68 446.158 201.9C446.078 203.08 446.258 204.12 446.698 205.02C447.158 205.9 447.798 206.59 448.618 207.09C449.458 207.57 450.368 207.81 451.348 207.81C452.428 207.81 453.338 207.56 454.078 207.06C454.818 206.56 455.418 205.92 455.878 205.14L458.218 206.34C457.898 207.08 457.398 207.76 456.718 208.38C456.058 208.98 455.268 209.46 454.348 209.82C453.448 210.18 452.438 210.36 451.318 210.36ZM468.096 210.36C466.476 210.36 465.066 209.96 463.866 209.16C462.666 208.36 461.816 207.28 461.316 205.92L463.536 204.84C463.996 205.8 464.626 206.56 465.426 207.12C466.226 207.68 467.116 207.96 468.096 207.96C468.976 207.96 469.706 207.75 470.286 207.33C470.866 206.91 471.156 206.36 471.156 205.68C471.156 205.2 471.016 204.82 470.736 204.54C470.476 204.24 470.156 204.01 469.776 203.85C469.396 203.67 469.046 203.54 468.726 203.46L466.296 202.77C464.836 202.35 463.766 201.75 463.086 200.97C462.426 200.19 462.096 199.28 462.096 198.24C462.096 197.28 462.336 196.45 462.816 195.75C463.316 195.03 463.986 194.47 464.826 194.07C465.686 193.67 466.646 193.47 467.706 193.47C469.126 193.47 470.396 193.83 471.516 194.55C472.656 195.27 473.466 196.28 473.946 197.58L471.666 198.63C471.306 197.79 470.766 197.13 470.046 196.65C469.326 196.15 468.516 195.9 467.616 195.9C466.796 195.9 466.146 196.11 465.666 196.53C465.186 196.93 464.946 197.44 464.946 198.06C464.946 198.52 465.066 198.9 465.306 199.2C465.546 199.48 465.836 199.7 466.176 199.86C466.516 200 466.846 200.12 467.166 200.22L469.806 201C471.126 201.38 472.146 201.97 472.866 202.77C473.606 203.57 473.976 204.53 473.976 205.65C473.976 206.55 473.726 207.36 473.226 208.08C472.726 208.8 472.036 209.36 471.156 209.76C470.276 210.16 469.256 210.36 468.096 210.36ZM490.163 210.36C488.643 210.36 487.273 209.99 486.053 209.25C484.853 208.51 483.903 207.5 483.203 206.22C482.503 204.94 482.153 203.51 482.153 201.93C482.153 200.31 482.503 198.87 483.203 197.61C483.903 196.33 484.853 195.32 486.053 194.58C487.273 193.84 488.643 193.47 490.163 193.47C491.503 193.47 492.693 193.76 493.733 194.34C494.773 194.9 495.593 195.66 496.193 196.62L495.743 197.31V187.29H498.563V210H495.833V206.55L496.193 207.03C495.633 208.09 494.813 208.91 493.733 209.49C492.673 210.07 491.483 210.36 490.163 210.36ZM490.403 207.66C491.423 207.66 492.333 207.41 493.133 206.91C493.933 206.41 494.563 205.73 495.023 204.87C495.503 203.99 495.743 203.01 495.743 201.93C495.743 200.83 495.503 199.85 495.023 198.99C494.563 198.11 493.933 197.42 493.133 196.92C492.333 196.42 491.423 196.17 490.403 196.17C489.403 196.17 488.493 196.43 487.673 196.95C486.873 197.45 486.243 198.13 485.783 198.99C485.323 199.83 485.093 200.81 485.093 201.93C485.093 203.01 485.323 203.99 485.783 204.87C486.243 205.73 486.873 206.41 487.673 206.91C488.473 207.41 489.383 207.66 490.403 207.66ZM507.622 210.36C506.562 210.36 505.622 210.17 504.802 209.79C504.002 209.39 503.372 208.85 502.912 208.17C502.452 207.47 502.222 206.67 502.222 205.77C502.222 204.91 502.402 204.14 502.762 203.46C503.142 202.76 503.722 202.17 504.502 201.69C505.302 201.21 506.302 200.87 507.502 200.67L513.502 199.68V202.02L508.132 202.92C507.092 203.1 506.332 203.43 505.852 203.91C505.392 204.39 505.162 204.98 505.162 205.68C505.162 206.34 505.422 206.89 505.942 207.33C506.482 207.77 507.152 207.99 507.952 207.99C508.972 207.99 509.852 207.78 510.592 207.36C511.352 206.92 511.942 206.33 512.362 205.59C512.802 204.85 513.022 204.03 513.022 203.13V199.02C513.022 198.14 512.692 197.43 512.032 196.89C511.392 196.33 510.542 196.05 509.482 196.05C508.562 196.05 507.742 196.29 507.022 196.77C506.322 197.23 505.802 197.85 505.462 198.63L503.032 197.37C503.332 196.63 503.812 195.97 504.472 195.39C505.132 194.79 505.902 194.32 506.782 193.98C507.662 193.64 508.582 193.47 509.542 193.47C510.782 193.47 511.872 193.71 512.812 194.19C513.752 194.65 514.482 195.3 515.002 196.14C515.542 196.96 515.812 197.92 515.812 199.02V210H513.082V206.94L513.592 207.12C513.252 207.76 512.792 208.32 512.212 208.8C511.632 209.28 510.952 209.66 510.172 209.94C509.392 210.22 508.542 210.36 507.622 210.36ZM526.415 210.18C524.835 210.18 523.615 209.73 522.755 208.83C521.915 207.93 521.495 206.66 521.495 205.02V196.5H518.555V193.83H519.155C519.875 193.83 520.445 193.61 520.865 193.17C521.285 192.73 521.495 192.15 521.495 191.43V190.11H524.285V193.83H527.915V196.5H524.285V204.93C524.285 205.47 524.365 205.94 524.525 206.34C524.705 206.74 524.995 207.06 525.395 207.3C525.795 207.52 526.325 207.63 526.985 207.63C527.125 207.63 527.295 207.62 527.495 207.6C527.715 207.58 527.915 207.56 528.095 207.54V210C527.835 210.06 527.545 210.1 527.225 210.12C526.905 210.16 526.635 210.18 526.415 210.18ZM536.274 210.36C535.214 210.36 534.274 210.17 533.454 209.79C532.654 209.39 532.024 208.85 531.564 208.17C531.104 207.47 530.874 206.67 530.874 205.77C530.874 204.91 531.054 204.14 531.414 203.46C531.794 202.76 532.374 202.17 533.154 201.69C533.954 201.21 534.954 200.87 536.154 200.67L542.154 199.68V202.02L536.784 202.92C535.744 203.1 534.984 203.43 534.504 203.91C534.044 204.39 533.814 204.98 533.814 205.68C533.814 206.34 534.074 206.89 534.594 207.33C535.134 207.77 535.804 207.99 536.604 207.99C537.624 207.99 538.504 207.78 539.244 207.36C540.004 206.92 540.594 206.33 541.014 205.59C541.454 204.85 541.674 204.03 541.674 203.13V199.02C541.674 198.14 541.344 197.43 540.684 196.89C540.044 196.33 539.194 196.05 538.134 196.05C537.214 196.05 536.394 196.29 535.674 196.77C534.974 197.23 534.454 197.85 534.114 198.63L531.684 197.37C531.984 196.63 532.464 195.97 533.124 195.39C533.784 194.79 534.554 194.32 535.434 193.98C536.314 193.64 537.234 193.47 538.194 193.47C539.434 193.47 540.524 193.71 541.464 194.19C542.404 194.65 543.134 195.3 543.654 196.14C544.194 196.96 544.464 197.92 544.464 199.02V210H541.734V206.94L542.244 207.12C541.904 207.76 541.444 208.32 540.864 208.8C540.284 209.28 539.604 209.66 538.824 209.94C538.044 210.22 537.194 210.36 536.274 210.36ZM555.685 210V196.5H552.595V193.83H555.685V192.69C555.685 191.53 555.935 190.55 556.435 189.75C556.955 188.95 557.635 188.34 558.475 187.92C559.335 187.5 560.285 187.29 561.325 187.29C561.545 187.29 561.785 187.31 562.045 187.35C562.325 187.37 562.555 187.4 562.735 187.44V189.93C562.575 189.89 562.385 189.87 562.165 189.87C561.945 189.85 561.775 189.84 561.655 189.84C560.735 189.84 559.975 190.06 559.375 190.5C558.795 190.94 558.505 191.67 558.505 192.69V193.83H562.345V196.5H558.505V210H555.685ZM569.965 210.36C568.905 210.36 567.965 210.17 567.145 209.79C566.345 209.39 565.715 208.85 565.255 208.17C564.795 207.47 564.565 206.67 564.565 205.77C564.565 204.91 564.745 204.14 565.105 203.46C565.485 202.76 566.065 202.17 566.845 201.69C567.645 201.21 568.645 200.87 569.845 200.67L575.845 199.68V202.02L570.475 202.92C569.435 203.1 568.675 203.43 568.195 203.91C567.735 204.39 567.505 204.98 567.505 205.68C567.505 206.34 567.765 206.89 568.285 207.33C568.825 207.77 569.495 207.99 570.295 207.99C571.315 207.99 572.195 207.78 572.935 207.36C573.695 206.92 574.285 206.33 574.705 205.59C575.145 204.85 575.365 204.03 575.365 203.13V199.02C575.365 198.14 575.035 197.43 574.375 196.89C573.735 196.33 572.885 196.05 571.825 196.05C570.905 196.05 570.085 196.29 569.365 196.77C568.665 197.23 568.145 197.85 567.805 198.63L565.375 197.37C565.675 196.63 566.155 195.97 566.815 195.39C567.475 194.79 568.245 194.32 569.125 193.98C570.005 193.64 570.925 193.47 571.885 193.47C573.125 193.47 574.215 193.71 575.155 194.19C576.095 194.65 576.825 195.3 577.345 196.14C577.885 196.96 578.155 197.92 578.155 199.02V210H575.425V206.94L575.935 207.12C575.595 207.76 575.135 208.32 574.555 208.8C573.975 209.28 573.295 209.66 572.515 209.94C571.735 210.22 570.885 210.36 569.965 210.36ZM588.271 210.36C586.651 210.36 585.241 209.96 584.041 209.16C582.841 208.36 581.991 207.28 581.491 205.92L583.711 204.84C584.171 205.8 584.801 206.56 585.601 207.12C586.401 207.68 587.291 207.96 588.271 207.96C589.151 207.96 589.881 207.75 590.461 207.33C591.041 206.91 591.331 206.36 591.331 205.68C591.331 205.2 591.191 204.82 590.911 204.54C590.651 204.24 590.331 204.01 589.951 203.85C589.571 203.67 589.221 203.54 588.901 203.46L586.471 202.77C585.011 202.35 583.941 201.75 583.261 200.97C582.601 200.19 582.271 199.28 582.271 198.24C582.271 197.28 582.511 196.45 582.991 195.75C583.491 195.03 584.161 194.47 585.001 194.07C585.861 193.67 586.821 193.47 587.881 193.47C589.301 193.47 590.571 193.83 591.691 194.55C592.831 195.27 593.641 196.28 594.121 197.58L591.841 198.63C591.481 197.79 590.941 197.13 590.221 196.65C589.501 196.15 588.691 195.9 587.791 195.9C586.971 195.9 586.321 196.11 585.841 196.53C585.361 196.93 585.121 197.44 585.121 198.06C585.121 198.52 585.241 198.9 585.481 199.2C585.721 199.48 586.011 199.7 586.351 199.86C586.691 200 587.021 200.12 587.341 200.22L589.981 201C591.301 201.38 592.321 201.97 593.041 202.77C593.781 203.57 594.151 204.53 594.151 205.65C594.151 206.55 593.901 207.36 593.401 208.08C592.901 208.8 592.211 209.36 591.331 209.76C590.451 210.16 589.431 210.36 588.271 210.36ZM597.804 210V193.83H600.594V210H597.804ZM597.804 191.25V187.65H600.594V191.25H597.804ZM604.923 210V187.29H607.713V210H604.923ZM612.042 210V193.83H614.832V210H612.042ZM612.042 191.25V187.65H614.832V191.25H612.042ZM625.731 210.18C624.151 210.18 622.931 209.73 622.071 208.83C621.231 207.93 620.811 206.66 620.811 205.02V196.5H617.871V193.83H618.471C619.191 193.83 619.761 193.61 620.181 193.17C620.601 192.73 620.811 192.15 620.811 191.43V190.11H623.601V193.83H627.231V196.5H623.601V204.93C623.601 205.47 623.681 205.94 623.841 206.34C624.021 206.74 624.311 207.06 624.711 207.3C625.111 207.52 625.641 207.63 626.301 207.63C626.441 207.63 626.611 207.62 626.811 207.6C627.031 207.58 627.231 207.56 627.411 207.54V210C627.151 210.06 626.861 210.1 626.541 210.12C626.221 210.16 625.951 210.18 625.731 210.18ZM635.59 210.36C634.53 210.36 633.59 210.17 632.77 209.79C631.97 209.39 631.34 208.85 630.88 208.17C630.42 207.47 630.19 206.67 630.19 205.77C630.19 204.91 630.37 204.14 630.73 203.46C631.11 202.76 631.69 202.17 632.47 201.69C633.27 201.21 634.27 200.87 635.47 200.67L641.47 199.68V202.02L636.1 202.92C635.06 203.1 634.3 203.43 633.82 203.91C633.36 204.39 633.13 204.98 633.13 205.68C633.13 206.34 633.39 206.89 633.91 207.33C634.45 207.77 635.12 207.99 635.92 207.99C636.94 207.99 637.82 207.78 638.56 207.36C639.32 206.92 639.91 206.33 640.33 205.59C640.77 204.85 640.99 204.03 640.99 203.13V199.02C640.99 198.14 640.66 197.43 640 196.89C639.36 196.33 638.51 196.05 637.45 196.05C636.53 196.05 635.71 196.29 634.99 196.77C634.29 197.23 633.77 197.85 633.43 198.63L631 197.37C631.3 196.63 631.78 195.97 632.44 195.39C633.1 194.79 633.87 194.32 634.75 193.98C635.63 193.64 636.55 193.47 637.51 193.47C638.75 193.47 639.84 193.71 640.78 194.19C641.72 194.65 642.45 195.3 642.97 196.14C643.51 196.96 643.78 197.92 643.78 199.02V210H641.05V206.94L641.56 207.12C641.22 207.76 640.76 208.32 640.18 208.8C639.6 209.28 638.92 209.66 638.14 209.94C637.36 210.22 636.51 210.36 635.59 210.36ZM653.896 210.36C652.276 210.36 650.866 209.96 649.666 209.16C648.466 208.36 647.616 207.28 647.116 205.92L649.336 204.84C649.796 205.8 650.426 206.56 651.226 207.12C652.026 207.68 652.916 207.96 653.896 207.96C654.776 207.96 655.506 207.75 656.086 207.33C656.666 206.91 656.956 206.36 656.956 205.68C656.956 205.2 656.816 204.82 656.536 204.54C656.276 204.24 655.956 204.01 655.576 203.85C655.196 203.67 654.846 203.54 654.526 203.46L652.096 202.77C650.636 202.35 649.566 201.75 648.886 200.97C648.226 200.19 647.896 199.28 647.896 198.24C647.896 197.28 648.136 196.45 648.616 195.75C649.116 195.03 649.786 194.47 650.626 194.07C651.486 193.67 652.446 193.47 653.506 193.47C654.926 193.47 656.196 193.83 657.316 194.55C658.456 195.27 659.266 196.28 659.746 197.58L657.466 198.63C657.106 197.79 656.566 197.13 655.846 196.65C655.126 196.15 654.316 195.9 653.416 195.9C652.596 195.9 651.946 196.11 651.466 196.53C650.986 196.93 650.746 197.44 650.746 198.06C650.746 198.52 650.866 198.9 651.106 199.2C651.346 199.48 651.636 199.7 651.976 199.86C652.316 200 652.646 200.12 652.966 200.22L655.606 201C656.926 201.38 657.946 201.97 658.666 202.77C659.406 203.57 659.776 204.53 659.776 205.65C659.776 206.55 659.526 207.36 659.026 208.08C658.526 208.8 657.836 209.36 656.956 209.76C656.076 210.16 655.056 210.36 653.896 210.36ZM675.964 210.36C674.444 210.36 673.074 209.99 671.854 209.25C670.654 208.51 669.704 207.5 669.004 206.22C668.304 204.94 667.954 203.51 667.954 201.93C667.954 200.31 668.304 198.87 669.004 197.61C669.704 196.33 670.654 195.32 671.854 194.58C673.074 193.84 674.444 193.47 675.964 193.47C677.304 193.47 678.494 193.76 679.534 194.34C680.574 194.9 681.394 195.66 681.994 196.62L681.544 197.31V187.29H684.364V210H681.634V206.55L681.994 207.03C681.434 208.09 680.614 208.91 679.534 209.49C678.474 210.07 677.284 210.36 675.964 210.36ZM676.204 207.66C677.224 207.66 678.134 207.41 678.934 206.91C679.734 206.41 680.364 205.73 680.824 204.87C681.304 203.99 681.544 203.01 681.544 201.93C681.544 200.83 681.304 199.85 680.824 198.99C680.364 198.11 679.734 197.42 678.934 196.92C678.134 196.42 677.224 196.17 676.204 196.17C675.204 196.17 674.294 196.43 673.474 196.95C672.674 197.45 672.044 198.13 671.584 198.99C671.124 199.83 670.894 200.81 670.894 201.93C670.894 203.01 671.124 203.99 671.584 204.87C672.044 205.73 672.674 206.41 673.474 206.91C674.274 207.41 675.184 207.66 676.204 207.66ZM696.122 210.36C694.562 210.36 693.172 209.99 691.952 209.25C690.732 208.51 689.772 207.5 689.072 206.22C688.372 204.92 688.022 203.47 688.022 201.87C688.022 200.25 688.362 198.81 689.042 197.55C689.742 196.29 690.682 195.3 691.862 194.58C693.062 193.84 694.402 193.47 695.882 193.47C697.082 193.47 698.142 193.69 699.062 194.13C700.002 194.55 700.792 195.13 701.432 195.87C702.092 196.59 702.592 197.42 702.932 198.36C703.292 199.28 703.472 200.24 703.472 201.24C703.472 201.46 703.452 201.71 703.412 201.99C703.392 202.25 703.362 202.5 703.322 202.74H690.062V200.34H701.702L700.382 201.42C700.562 200.38 700.462 199.45 700.082 198.63C699.702 197.81 699.142 197.16 698.402 196.68C697.662 196.2 696.822 195.96 695.882 195.96C694.942 195.96 694.082 196.2 693.302 196.68C692.522 197.16 691.912 197.85 691.472 198.75C691.052 199.63 690.882 200.68 690.962 201.9C690.882 203.08 691.062 204.12 691.502 205.02C691.962 205.9 692.602 206.59 693.422 207.09C694.262 207.57 695.172 207.81 696.152 207.81C697.232 207.81 698.142 207.56 698.882 207.06C699.622 206.56 700.222 205.92 700.682 205.14L703.022 206.34C702.702 207.08 702.202 207.76 701.522 208.38C700.862 208.98 700.072 209.46 699.152 209.82C698.252 210.18 697.242 210.36 696.122 210.36ZM707.11 210V193.83H709.84V196.98L709.39 196.71C709.79 195.69 710.43 194.9 711.31 194.34C712.21 193.76 713.26 193.47 714.46 193.47C715.62 193.47 716.65 193.73 717.55 194.25C718.47 194.77 719.19 195.49 719.71 196.41C720.25 197.33 720.52 198.37 720.52 199.53V210H717.7V200.43C717.7 199.53 717.54 198.77 717.22 198.15C716.9 197.53 716.44 197.05 715.84 196.71C715.26 196.35 714.59 196.17 713.83 196.17C713.07 196.17 712.39 196.35 711.79 196.71C711.21 197.05 710.75 197.54 710.41 198.18C710.07 198.8 709.9 199.55 709.9 200.43V210H707.11ZM732.223 216.6C731.083 216.6 730.023 216.42 729.043 216.06C728.083 215.7 727.253 215.2 726.553 214.56C725.873 213.94 725.353 213.21 724.993 212.37L727.603 211.17C727.883 211.93 728.413 212.57 729.193 213.09C729.993 213.63 730.993 213.9 732.193 213.9C733.113 213.9 733.943 213.72 734.683 213.36C735.443 213.02 736.043 212.5 736.483 211.8C736.923 211.12 737.143 210.29 737.143 209.31V205.68L737.653 206.22C737.093 207.32 736.283 208.16 735.223 208.74C734.183 209.32 733.033 209.61 731.773 209.61C730.253 209.61 728.893 209.26 727.693 208.56C726.493 207.84 725.553 206.87 724.873 205.65C724.193 204.41 723.853 203.04 723.853 201.54C723.853 200.02 724.193 198.65 724.873 197.43C725.553 196.21 726.483 195.25 727.663 194.55C728.863 193.83 730.223 193.47 731.743 193.47C733.003 193.47 734.143 193.76 735.163 194.34C736.203 194.9 737.033 195.68 737.653 196.68L737.233 197.43V193.83H739.963V209.31C739.963 210.71 739.633 211.96 738.973 213.06C738.313 214.16 737.393 215.02 736.213 215.64C735.053 216.28 733.723 216.6 732.223 216.6ZM732.013 206.91C732.973 206.91 733.833 206.67 734.593 206.19C735.373 205.71 735.993 205.07 736.453 204.27C736.913 203.45 737.143 202.54 737.143 201.54C737.143 200.56 736.913 199.66 736.453 198.84C735.993 198.02 735.373 197.37 734.593 196.89C733.833 196.41 732.973 196.17 732.013 196.17C731.033 196.17 730.143 196.41 729.343 196.89C728.543 197.37 727.913 198.02 727.453 198.84C727.013 199.64 726.793 200.54 726.793 201.54C726.793 202.54 727.013 203.45 727.453 204.27C727.913 205.07 728.533 205.71 729.313 206.19C730.113 206.67 731.013 206.91 732.013 206.91ZM749.028 210.36C747.968 210.36 747.028 210.17 746.208 209.79C745.408 209.39 744.778 208.85 744.318 208.17C743.858 207.47 743.628 206.67 743.628 205.77C743.628 204.91 743.808 204.14 744.168 203.46C744.548 202.76 745.128 202.17 745.908 201.69C746.708 201.21 747.708 200.87 748.908 200.67L754.908 199.68V202.02L749.538 202.92C748.498 203.1 747.738 203.43 747.258 203.91C746.798 204.39 746.568 204.98 746.568 205.68C746.568 206.34 746.828 206.89 747.348 207.33C747.888 207.77 748.558 207.99 749.358 207.99C750.378 207.99 751.258 207.78 751.998 207.36C752.758 206.92 753.348 206.33 753.768 205.59C754.208 204.85 754.428 204.03 754.428 203.13V199.02C754.428 198.14 754.098 197.43 753.438 196.89C752.798 196.33 751.948 196.05 750.888 196.05C749.968 196.05 749.148 196.29 748.428 196.77C747.728 197.23 747.208 197.85 746.868 198.63L744.438 197.37C744.738 196.63 745.218 195.97 745.878 195.39C746.538 194.79 747.308 194.32 748.188 193.98C749.068 193.64 749.988 193.47 750.948 193.47C752.188 193.47 753.278 193.71 754.218 194.19C755.158 194.65 755.888 195.3 756.408 196.14C756.948 196.96 757.218 197.92 757.218 199.02V210H754.488V206.94L754.998 207.12C754.658 207.76 754.198 208.32 753.618 208.8C753.038 209.28 752.358 209.66 751.578 209.94C750.798 210.22 749.948 210.36 749.028 210.36ZM761.544 210V193.83H764.274V196.98L763.824 196.71C764.224 195.69 764.864 194.9 765.744 194.34C766.644 193.76 767.694 193.47 768.894 193.47C770.054 193.47 771.084 193.73 771.984 194.25C772.904 194.77 773.624 195.49 774.144 196.41C774.684 197.33 774.954 198.37 774.954 199.53V210H772.134V200.43C772.134 199.53 771.974 198.77 771.654 198.15C771.334 197.53 770.874 197.05 770.274 196.71C769.694 196.35 769.024 196.17 768.264 196.17C767.504 196.17 766.824 196.35 766.224 196.71C765.644 197.05 765.184 197.54 764.844 198.18C764.504 198.8 764.334 199.55 764.334 200.43V210H761.544ZM791.632 210.36C790.052 210.36 788.642 209.99 787.402 209.25C786.182 208.51 785.222 207.5 784.522 206.22C783.822 204.94 783.472 203.5 783.472 201.9C783.472 200.28 783.822 198.84 784.522 197.58C785.222 196.32 786.182 195.32 787.402 194.58C788.642 193.84 790.052 193.47 791.632 193.47C792.692 193.47 793.682 193.66 794.602 194.04C795.522 194.42 796.332 194.93 797.032 195.57C797.732 196.21 798.242 196.96 798.562 197.82L796.072 199.02C795.692 198.18 795.112 197.5 794.332 196.98C793.552 196.44 792.652 196.17 791.632 196.17C790.652 196.17 789.762 196.42 788.962 196.92C788.182 197.42 787.562 198.1 787.102 198.96C786.642 199.82 786.412 200.81 786.412 201.93C786.412 203.01 786.642 203.99 787.102 204.87C787.562 205.73 788.182 206.41 788.962 206.91C789.762 207.41 790.652 207.66 791.632 207.66C792.652 207.66 793.552 207.4 794.332 206.88C795.112 206.34 795.692 205.63 796.072 204.75L798.562 206.01C798.242 206.85 797.732 207.6 797.032 208.26C796.332 208.9 795.522 209.41 794.602 209.79C793.682 210.17 792.692 210.36 791.632 210.36ZM809.648 210.36C808.088 210.36 806.698 209.99 805.478 209.25C804.258 208.51 803.298 207.5 802.598 206.22C801.898 204.92 801.548 203.47 801.548 201.87C801.548 200.25 801.888 198.81 802.568 197.55C803.268 196.29 804.208 195.3 805.388 194.58C806.588 193.84 807.928 193.47 809.408 193.47C810.608 193.47 811.668 193.69 812.588 194.13C813.528 194.55 814.318 195.13 814.958 195.87C815.618 196.59 816.118 197.42 816.458 198.36C816.818 199.28 816.998 200.24 816.998 201.24C816.998 201.46 816.978 201.71 816.938 201.99C816.918 202.25 816.888 202.5 816.848 202.74H803.588V200.34H815.228L813.908 201.42C814.088 200.38 813.988 199.45 813.608 198.63C813.228 197.81 812.668 197.16 811.928 196.68C811.188 196.2 810.348 195.96 809.408 195.96C808.468 195.96 807.608 196.2 806.828 196.68C806.048 197.16 805.438 197.85 804.998 198.75C804.578 199.63 804.408 200.68 804.488 201.9C804.408 203.08 804.588 204.12 805.028 205.02C805.488 205.9 806.128 206.59 806.948 207.09C807.788 207.57 808.698 207.81 809.678 207.81C810.758 207.81 811.668 207.56 812.408 207.06C813.148 206.56 813.748 205.92 814.208 205.14L816.548 206.34C816.228 207.08 815.728 207.76 815.048 208.38C814.388 208.98 813.598 209.46 812.678 209.82C811.778 210.18 810.768 210.36 809.648 210.36ZM820.636 216V193.83H823.366V197.31L823.006 196.62C823.606 195.66 824.426 194.9 825.466 194.34C826.506 193.76 827.696 193.47 829.036 193.47C830.556 193.47 831.916 193.84 833.116 194.58C834.336 195.32 835.296 196.33 835.996 197.61C836.696 198.87 837.046 200.31 837.046 201.93C837.046 203.51 836.696 204.94 835.996 206.22C835.296 207.5 834.336 208.51 833.116 209.25C831.916 209.99 830.546 210.36 829.006 210.36C827.706 210.36 826.516 210.07 825.436 209.49C824.376 208.91 823.556 208.09 822.976 207.03L823.426 206.55V216H820.636ZM828.796 207.66C829.816 207.66 830.726 207.41 831.526 206.91C832.326 206.41 832.946 205.73 833.386 204.87C833.846 203.99 834.076 203.01 834.076 201.93C834.076 200.81 833.846 199.83 833.386 198.99C832.946 198.13 832.326 197.45 831.526 196.95C830.726 196.43 829.816 196.17 828.796 196.17C827.776 196.17 826.856 196.42 826.036 196.92C825.236 197.42 824.596 198.11 824.116 198.99C823.656 199.85 823.426 200.83 823.426 201.93C823.426 203.01 823.656 203.99 824.116 204.87C824.596 205.73 825.236 206.41 826.036 206.91C826.856 207.41 827.776 207.66 828.796 207.66ZM845.444 210.36C844.384 210.36 843.444 210.17 842.624 209.79C841.824 209.39 841.194 208.85 840.734 208.17C840.274 207.47 840.044 206.67 840.044 205.77C840.044 204.91 840.224 204.14 840.584 203.46C840.964 202.76 841.544 202.17 842.324 201.69C843.124 201.21 844.124 200.87 845.324 200.67L851.324 199.68V202.02L845.954 202.92C844.914 203.1 844.154 203.43 843.674 203.91C843.214 204.39 842.984 204.98 842.984 205.68C842.984 206.34 843.244 206.89 843.764 207.33C844.304 207.77 844.974 207.99 845.774 207.99C846.794 207.99 847.674 207.78 848.414 207.36C849.174 206.92 849.764 206.33 850.184 205.59C850.624 204.85 850.844 204.03 850.844 203.13V199.02C850.844 198.14 850.514 197.43 849.854 196.89C849.214 196.33 848.364 196.05 847.304 196.05C846.384 196.05 845.564 196.29 844.844 196.77C844.144 197.23 843.624 197.85 843.284 198.63L840.854 197.37C841.154 196.63 841.634 195.97 842.294 195.39C842.954 194.79 843.724 194.32 844.604 193.98C845.484 193.64 846.404 193.47 847.364 193.47C848.604 193.47 849.694 193.71 850.634 194.19C851.574 194.65 852.304 195.3 852.824 196.14C853.364 196.96 853.634 197.92 853.634 199.02V210H850.904V206.94L851.414 207.12C851.074 207.76 850.614 208.32 850.034 208.8C849.454 209.28 848.774 209.66 847.994 209.94C847.214 210.22 846.364 210.36 845.444 210.36ZM864.237 210.18C862.657 210.18 861.437 209.73 860.577 208.83C859.737 207.93 859.317 206.66 859.317 205.02V196.5H856.377V193.83H856.977C857.697 193.83 858.267 193.61 858.687 193.17C859.107 192.73 859.317 192.15 859.317 191.43V190.11H862.107V193.83H865.737V196.5H862.107V204.93C862.107 205.47 862.187 205.94 862.347 206.34C862.527 206.74 862.817 207.06 863.217 207.3C863.617 207.52 864.147 207.63 864.807 207.63C864.947 207.63 865.117 207.62 865.317 207.6C865.537 207.58 865.737 207.56 865.917 207.54V210C865.657 210.06 865.367 210.1 865.047 210.12C864.727 210.16 864.457 210.18 864.237 210.18ZM870.041 214.17V212.82C870.661 212.66 871.131 212.35 871.451 211.89C871.771 211.43 871.951 210.8 871.991 210H870.641V206.4H873.551V208.95C873.551 210.39 873.251 211.55 872.651 212.43C872.071 213.31 871.201 213.89 870.041 214.17ZM890.282 210.18C888.702 210.18 887.482 209.73 886.622 208.83C885.782 207.93 885.362 206.66 885.362 205.02V196.5H882.422V193.83H883.022C883.742 193.83 884.312 193.61 884.732 193.17C885.152 192.73 885.362 192.15 885.362 191.43V190.11H888.152V193.83H891.782V196.5H888.152V204.93C888.152 205.47 888.232 205.94 888.392 206.34C888.572 206.74 888.862 207.06 889.262 207.3C889.662 207.52 890.192 207.63 890.852 207.63C890.992 207.63 891.162 207.62 891.362 207.6C891.582 207.58 891.782 207.56 891.962 207.54V210C891.702 210.06 891.412 210.1 891.092 210.12C890.772 210.16 890.502 210.18 890.282 210.18ZM902.607 210.36C901.047 210.36 899.657 209.99 898.437 209.25C897.217 208.51 896.257 207.5 895.557 206.22C894.857 204.92 894.507 203.47 894.507 201.87C894.507 200.25 894.847 198.81 895.527 197.55C896.227 196.29 897.167 195.3 898.347 194.58C899.547 193.84 900.887 193.47 902.367 193.47C903.567 193.47 904.627 193.69 905.547 194.13C906.487 194.55 907.277 195.13 907.917 195.87C908.577 196.59 909.077 197.42 909.417 198.36C909.777 199.28 909.957 200.24 909.957 201.24C909.957 201.46 909.937 201.71 909.897 201.99C909.877 202.25 909.847 202.5 909.807 202.74H896.547V200.34H908.187L906.867 201.42C907.047 200.38 906.947 199.45 906.567 198.63C906.187 197.81 905.627 197.16 904.887 196.68C904.147 196.2 903.307 195.96 902.367 195.96C901.427 195.96 900.567 196.2 899.787 196.68C899.007 197.16 898.397 197.85 897.957 198.75C897.537 199.63 897.367 200.68 897.447 201.9C897.367 203.08 897.547 204.12 897.987 205.02C898.447 205.9 899.087 206.59 899.907 207.09C900.747 207.57 901.657 207.81 902.637 207.81C903.717 207.81 904.627 207.56 905.367 207.06C906.107 206.56 906.707 205.92 907.167 205.14L909.507 206.34C909.187 207.08 908.687 207.76 908.007 208.38C907.347 208.98 906.557 209.46 905.637 209.82C904.737 210.18 903.727 210.36 902.607 210.36ZM913.595 216V193.83H916.325V197.31L915.965 196.62C916.565 195.66 917.385 194.9 918.425 194.34C919.465 193.76 920.655 193.47 921.995 193.47C923.515 193.47 924.875 193.84 926.075 194.58C927.295 195.32 928.255 196.33 928.955 197.61C929.655 198.87 930.005 200.31 930.005 201.93C930.005 203.51 929.655 204.94 928.955 206.22C928.255 207.5 927.295 208.51 926.075 209.25C924.875 209.99 923.505 210.36 921.965 210.36C920.665 210.36 919.475 210.07 918.395 209.49C917.335 208.91 916.515 208.09 915.935 207.03L916.385 206.55V216H913.595ZM921.755 207.66C922.775 207.66 923.685 207.41 924.485 206.91C925.285 206.41 925.905 205.73 926.345 204.87C926.805 203.99 927.035 203.01 927.035 201.93C927.035 200.81 926.805 199.83 926.345 198.99C925.905 198.13 925.285 197.45 924.485 196.95C923.685 196.43 922.775 196.17 921.755 196.17C920.735 196.17 919.815 196.42 918.995 196.92C918.195 197.42 917.555 198.11 917.075 198.99C916.615 199.85 916.385 200.83 916.385 201.93C916.385 203.01 916.615 203.99 917.075 204.87C917.555 205.73 918.195 206.41 918.995 206.91C919.815 207.41 920.735 207.66 921.755 207.66ZM938.403 210.36C937.343 210.36 936.403 210.17 935.583 209.79C934.783 209.39 934.153 208.85 933.693 208.17C933.233 207.47 933.003 206.67 933.003 205.77C933.003 204.91 933.183 204.14 933.543 203.46C933.923 202.76 934.503 202.17 935.283 201.69C936.083 201.21 937.083 200.87 938.283 200.67L944.283 199.68V202.02L938.913 202.92C937.873 203.1 937.113 203.43 936.633 203.91C936.173 204.39 935.943 204.98 935.943 205.68C935.943 206.34 936.203 206.89 936.723 207.33C937.263 207.77 937.933 207.99 938.733 207.99C939.753 207.99 940.633 207.78 941.373 207.36C942.133 206.92 942.723 206.33 943.143 205.59C943.583 204.85 943.803 204.03 943.803 203.13V199.02C943.803 198.14 943.473 197.43 942.813 196.89C942.173 196.33 941.323 196.05 940.263 196.05C939.343 196.05 938.523 196.29 937.803 196.77C937.103 197.23 936.583 197.85 936.243 198.63L933.813 197.37C934.113 196.63 934.593 195.97 935.253 195.39C935.913 194.79 936.683 194.32 937.563 193.98C938.443 193.64 939.363 193.47 940.323 193.47C941.563 193.47 942.653 193.71 943.593 194.19C944.533 194.65 945.263 195.3 945.783 196.14C946.323 196.96 946.593 197.92 946.593 199.02V210H943.863V206.94L944.373 207.12C944.033 207.76 943.573 208.32 942.993 208.8C942.413 209.28 941.733 209.66 940.953 209.94C940.173 210.22 939.323 210.36 938.403 210.36ZM957.196 210.18C955.616 210.18 954.396 209.73 953.536 208.83C952.696 207.93 952.276 206.66 952.276 205.02V196.5H949.336V193.83H949.936C950.656 193.83 951.226 193.61 951.646 193.17C952.066 192.73 952.276 192.15 952.276 191.43V190.11H955.066V193.83H958.696V196.5H955.066V204.93C955.066 205.47 955.146 205.94 955.306 206.34C955.486 206.74 955.776 207.06 956.176 207.3C956.576 207.52 957.106 207.63 957.766 207.63C957.906 207.63 958.076 207.62 958.276 207.6C958.496 207.58 958.696 207.56 958.876 207.54V210C958.616 210.06 958.326 210.1 958.006 210.12C957.686 210.16 957.416 210.18 957.196 210.18ZM963 214.17V212.82C963.62 212.66 964.09 212.35 964.41 211.89C964.73 211.43 964.91 210.8 964.95 210H963.6V206.4H966.51V208.95C966.51 210.39 966.21 211.55 965.61 212.43C965.03 213.31 964.16 213.89 963 214.17ZM984.021 210.36C982.501 210.36 981.131 209.99 979.911 209.25C978.711 208.51 977.761 207.5 977.061 206.22C976.361 204.94 976.011 203.51 976.011 201.93C976.011 200.31 976.361 198.87 977.061 197.61C977.761 196.33 978.711 195.32 979.911 194.58C981.131 193.84 982.501 193.47 984.021 193.47C985.361 193.47 986.551 193.76 987.591 194.34C988.631 194.9 989.451 195.66 990.051 196.62L989.601 197.31V187.29H992.421V210H989.691V206.55L990.051 207.03C989.491 208.09 988.671 208.91 987.591 209.49C986.531 210.07 985.341 210.36 984.021 210.36ZM984.261 207.66C985.281 207.66 986.191 207.41 986.991 206.91C987.791 206.41 988.421 205.73 988.881 204.87C989.361 203.99 989.601 203.01 989.601 201.93C989.601 200.83 989.361 199.85 988.881 198.99C988.421 198.11 987.791 197.42 986.991 196.92C986.191 196.42 985.281 196.17 984.261 196.17C983.261 196.17 982.351 196.43 981.531 196.95C980.731 197.45 980.101 198.13 979.641 198.99C979.181 199.83 978.951 200.81 978.951 201.93C978.951 203.01 979.181 203.99 979.641 204.87C980.101 205.73 980.731 206.41 981.531 206.91C982.331 207.41 983.241 207.66 984.261 207.66ZM1001.48 210.36C1000.42 210.36 999.479 210.17 998.659 209.79C997.859 209.39 997.229 208.85 996.769 208.17C996.309 207.47 996.079 206.67 996.079 205.77C996.079 204.91 996.259 204.14 996.619 203.46C996.999 202.76 997.579 202.17 998.359 201.69C999.159 201.21 1000.16 200.87 1001.36 200.67L1007.36 199.68V202.02L1001.99 202.92C1000.95 203.1 1000.19 203.43 999.709 203.91C999.249 204.39 999.019 204.98 999.019 205.68C999.019 206.34 999.279 206.89 999.799 207.33C1000.34 207.77 1001.01 207.99 1001.81 207.99C1002.83 207.99 1003.71 207.78 1004.45 207.36C1005.21 206.92 1005.8 206.33 1006.22 205.59C1006.66 204.85 1006.88 204.03 1006.88 203.13V199.02C1006.88 198.14 1006.55 197.43 1005.89 196.89C1005.25 196.33 1004.4 196.05 1003.34 196.05C1002.42 196.05 1001.6 196.29 1000.88 196.77C1000.18 197.23 999.659 197.85 999.319 198.63L996.889 197.37C997.189 196.63 997.669 195.97 998.329 195.39C998.989 194.79 999.759 194.32 1000.64 193.98C1001.52 193.64 1002.44 193.47 1003.4 193.47C1004.64 193.47 1005.73 193.71 1006.67 194.19C1007.61 194.65 1008.34 195.3 1008.86 196.14C1009.4 196.96 1009.67 197.92 1009.67 199.02V210H1006.94V206.94L1007.45 207.12C1007.11 207.76 1006.65 208.32 1006.07 208.8C1005.49 209.28 1004.81 209.66 1004.03 209.94C1003.25 210.22 1002.4 210.36 1001.48 210.36ZM1013.99 210V193.83H1016.72V196.98L1016.27 196.71C1016.67 195.69 1017.31 194.9 1018.19 194.34C1019.09 193.76 1020.14 193.47 1021.34 193.47C1022.5 193.47 1023.53 193.73 1024.43 194.25C1025.35 194.77 1026.07 195.49 1026.59 196.41C1027.13 197.33 1027.4 198.37 1027.4 199.53V210H1024.58V200.43C1024.58 199.53 1024.42 198.77 1024.1 198.15C1023.78 197.53 1023.32 197.05 1022.72 196.71C1022.14 196.35 1021.47 196.17 1020.71 196.17C1019.95 196.17 1019.27 196.35 1018.67 196.71C1018.09 197.05 1017.63 197.54 1017.29 198.18C1016.95 198.8 1016.78 199.55 1016.78 200.43V210H1013.99ZM1044.02 210.36C1042.46 210.36 1041.07 209.99 1039.85 209.25C1038.63 208.51 1037.67 207.5 1036.97 206.22C1036.27 204.92 1035.92 203.47 1035.92 201.87C1035.92 200.25 1036.26 198.81 1036.94 197.55C1037.64 196.29 1038.58 195.3 1039.76 194.58C1040.96 193.84 1042.3 193.47 1043.78 193.47C1044.98 193.47 1046.04 193.69 1046.96 194.13C1047.9 194.55 1048.69 195.13 1049.33 195.87C1049.99 196.59 1050.49 197.42 1050.83 198.36C1051.19 199.28 1051.37 200.24 1051.37 201.24C1051.37 201.46 1051.35 201.71 1051.31 201.99C1051.29 202.25 1051.26 202.5 1051.22 202.74H1037.96V200.34H1049.6L1048.28 201.42C1048.46 200.38 1048.36 199.45 1047.98 198.63C1047.6 197.81 1047.04 197.16 1046.3 196.68C1045.56 196.2 1044.72 195.96 1043.78 195.96C1042.84 195.96 1041.98 196.2 1041.2 196.68C1040.42 197.16 1039.81 197.85 1039.37 198.75C1038.95 199.63 1038.78 200.68 1038.86 201.9C1038.78 203.08 1038.96 204.12 1039.4 205.02C1039.86 205.9 1040.5 206.59 1041.32 207.09C1042.16 207.57 1043.07 207.81 1044.05 207.81C1045.13 207.81 1046.04 207.56 1046.78 207.06C1047.52 206.56 1048.12 205.92 1048.58 205.14L1050.92 206.34C1050.6 207.08 1050.1 207.76 1049.42 208.38C1048.76 208.98 1047.97 209.46 1047.05 209.82C1046.15 210.18 1045.14 210.36 1044.02 210.36ZM1056.72 210V196.5H1053.63V193.83H1056.72V192.69C1056.72 191.53 1056.97 190.55 1057.47 189.75C1057.99 188.95 1058.67 188.34 1059.51 187.92C1060.37 187.5 1061.32 187.29 1062.36 187.29C1062.58 187.29 1062.82 187.31 1063.08 187.35C1063.36 187.37 1063.59 187.4 1063.77 187.44V189.93C1063.61 189.89 1063.42 189.87 1063.2 189.87C1062.98 189.85 1062.81 189.84 1062.69 189.84C1061.77 189.84 1061.01 190.06 1060.41 190.5C1059.83 190.94 1059.54 191.67 1059.54 192.69V193.83H1067.94V196.5H1059.54V210H1056.72ZM1066.2 210V193.83H1069.02V210H1066.2ZM1078.67 210.36C1077.05 210.36 1075.64 209.96 1074.44 209.16C1073.24 208.36 1072.39 207.28 1071.89 205.92L1074.11 204.84C1074.57 205.8 1075.2 206.56 1076 207.12C1076.8 207.68 1077.69 207.96 1078.67 207.96C1079.55 207.96 1080.28 207.75 1080.86 207.33C1081.44 206.91 1081.73 206.36 1081.73 205.68C1081.73 205.2 1081.59 204.82 1081.31 204.54C1081.05 204.24 1080.73 204.01 1080.35 203.85C1079.97 203.67 1079.62 203.54 1079.3 203.46L1076.87 202.77C1075.41 202.35 1074.34 201.75 1073.66 200.97C1073 200.19 1072.67 199.28 1072.67 198.24C1072.67 197.28 1072.91 196.45 1073.39 195.75C1073.89 195.03 1074.56 194.47 1075.4 194.07C1076.26 193.67 1077.22 193.47 1078.28 193.47C1079.7 193.47 1080.97 193.83 1082.09 194.55C1083.23 195.27 1084.04 196.28 1084.52 197.58L1082.24 198.63C1081.88 197.79 1081.34 197.13 1080.62 196.65C1079.9 196.15 1079.09 195.9 1078.19 195.9C1077.37 195.9 1076.72 196.11 1076.24 196.53C1075.76 196.93 1075.52 197.44 1075.52 198.06C1075.52 198.52 1075.64 198.9 1075.88 199.2C1076.12 199.48 1076.41 199.7 1076.75 199.86C1077.09 200 1077.42 200.12 1077.74 200.22L1080.38 201C1081.7 201.38 1082.72 201.97 1083.44 202.77C1084.18 203.57 1084.55 204.53 1084.55 205.65C1084.55 206.55 1084.3 207.36 1083.8 208.08C1083.3 208.8 1082.61 209.36 1081.73 209.76C1080.85 210.16 1079.83 210.36 1078.67 210.36ZM1088.2 210V193.83H1090.99V210H1088.2ZM1088.2 191.25V187.65H1090.99V191.25H1088.2ZM1102.76 210.36C1101.2 210.36 1099.81 209.99 1098.59 209.25C1097.37 208.51 1096.41 207.5 1095.71 206.22C1095.01 204.92 1094.66 203.47 1094.66 201.87C1094.66 200.25 1095 198.81 1095.68 197.55C1096.38 196.29 1097.32 195.3 1098.5 194.58C1099.7 193.84 1101.04 193.47 1102.52 193.47C1103.72 193.47 1104.78 193.69 1105.7 194.13C1106.64 194.55 1107.43 195.13 1108.07 195.87C1108.73 196.59 1109.23 197.42 1109.57 198.36C1109.93 199.28 1110.11 200.24 1110.11 201.24C1110.11 201.46 1110.09 201.71 1110.05 201.99C1110.03 202.25 1110 202.5 1109.96 202.74H1096.7V200.34H1108.34L1107.02 201.42C1107.2 200.38 1107.1 199.45 1106.72 198.63C1106.34 197.81 1105.78 197.16 1105.04 196.68C1104.3 196.2 1103.46 195.96 1102.52 195.96C1101.58 195.96 1100.72 196.2 1099.94 196.68C1099.16 197.16 1098.55 197.85 1098.11 198.75C1097.69 199.63 1097.52 200.68 1097.6 201.9C1097.52 203.08 1097.7 204.12 1098.14 205.02C1098.6 205.9 1099.24 206.59 1100.06 207.09C1100.9 207.57 1101.81 207.81 1102.79 207.81C1103.87 207.81 1104.78 207.56 1105.52 207.06C1106.26 206.56 1106.86 205.92 1107.32 205.14L1109.66 206.34C1109.34 207.08 1108.84 207.76 1108.16 208.38C1107.5 208.98 1106.71 209.46 1105.79 209.82C1104.89 210.18 1103.88 210.36 1102.76 210.36ZM1113.75 210V193.83H1116.48V196.98L1116.03 196.71C1116.43 195.69 1117.07 194.9 1117.95 194.34C1118.85 193.76 1119.9 193.47 1121.1 193.47C1122.26 193.47 1123.29 193.73 1124.19 194.25C1125.11 194.77 1125.83 195.49 1126.35 196.41C1126.89 197.33 1127.16 198.37 1127.16 199.53V210H1124.34V200.43C1124.34 199.53 1124.18 198.77 1123.86 198.15C1123.54 197.53 1123.08 197.05 1122.48 196.71C1121.9 196.35 1121.23 196.17 1120.47 196.17C1119.71 196.17 1119.03 196.35 1118.43 196.71C1117.85 197.05 1117.39 197.54 1117.05 198.18C1116.71 198.8 1116.54 199.55 1116.54 200.43V210H1113.75ZM1132.29 210V206.4H1135.2V210H1132.29Z" fill="#E8E8E8"/>
<path d="M1371 304C1371 275.357 1358.73 247.886 1336.88 227.632C1315.03 207.379 1285.4 196 1254.5 196C1223.6 196 1193.97 207.379 1172.12 227.632C1150.27 247.886 1138 275.357 1138 304L1254.5 304H1371Z" fill="white" fill-opacity="0.5"/>
<path d="M201 304C201 281.722 191.465 260.356 174.493 244.603C157.521 228.85 134.502 220 110.5 220C86.4979 220 63.4789 228.85 46.5068 244.603C29.5348 260.356 20 281.722 20 304L63.9387 304C63.9387 292.538 68.8442 281.546 77.5762 273.441C86.3081 265.336 98.1512 260.783 110.5 260.783C122.849 260.783 134.692 265.336 143.424 273.441C152.156 281.546 157.061 292.538 157.061 304H201Z" fill="white" fill-opacity="0.5"/>
<path d="M1341.62 209.909C1335.04 237.864 1307.05 255.195 1279.09 248.618C1251.14 242.041 1233.8 214.047 1240.38 186.091C1246.96 158.136 1274.95 140.805 1302.91 147.382C1330.86 153.959 1348.2 181.953 1341.62 209.909ZM1261.22 190.993C1257.35 207.441 1267.55 223.911 1283.99 227.781C1300.44 231.65 1316.91 221.454 1320.78 205.006C1324.65 188.559 1314.45 172.089 1298.01 168.219C1281.56 164.35 1265.09 174.546 1261.22 190.993Z" fill="white" fill-opacity="0.25"/>
</g>
<defs>
<filter id="filter0_d_158_27" x="-11" y="-10" width="1410" height="334" filterUnits="userSpaceOnUse" color-interpolation-filters="sRGB">
<feFlood flood-opacity="0" result="BackgroundImageFix"/>
<feColorMatrix in="SourceAlpha" type="matrix" values="0 0 0 0 0 0 0 0 0 0 0 0 0 0 0 0 0 0 127 0" result="hardAlpha"/>
<feOffset dx="5" dy="5"/>
<feGaussianBlur stdDeviation="7.5"/>
<feComposite in2="hardAlpha" operator="out"/>
<feColorMatrix type="matrix" values="0 0 0 0 0 0 0 0 0 0 0 0 0 0 0 0 0 0 0.25 0"/>
<feBlend mode="normal" in2="BackgroundImageFix" result="effect1_dropShadow_158_27"/>
<feBlend mode="normal" in="SourceGraphic" in2="effect1_dropShadow_158_27" result="shape"/>
</filter>
<clipPath id="clip0_158_27">
<rect width="1380" height="304" fill="white"/>
</clipPath>
</defs>
</svg>
