<svg width="211" height="211" viewBox="0 0 211 211" fill="none" xmlns="http://www.w3.org/2000/svg">
<g clip-path="url(#clip0_37_111)">
<g filter="url(#filter0_d_37_111)">
<path d="M193.417 48.3542H79.125C69.4542 48.3542 61.5417 56.2667 61.5417 65.9376V145.063C61.5417 149.726 63.3942 154.198 66.6917 157.496C69.9892 160.793 74.4616 162.646 79.125 162.646H193.417C203.175 162.646 211 154.821 211 145.063V65.9376C211 61.2742 209.147 56.8018 205.85 53.5043C202.552 50.2068 198.08 48.3542 193.417 48.3542ZM193.417 80.6197L136.271 109.896L79.125 80.6197V65.9376L136.271 95.038L193.417 65.9376V80.6197ZM43.9583 145.063C43.9583 146.557 44.2221 147.964 44.3979 149.458H8.79167C3.93867 149.458 0 145.502 0 140.667C0 135.831 3.93867 131.875 8.79167 131.875H43.9583V145.063ZM26.375 61.5417H44.3979C44.2221 63.0363 43.9583 64.443 43.9583 65.9376V79.1251H26.375C21.5396 79.1251 17.5833 75.1688 17.5833 70.3334C17.5833 65.498 21.5396 61.5417 26.375 61.5417ZM8.79167 105.5C8.79167 100.665 12.7479 96.7084 17.5833 96.7084H43.9583V114.292H17.5833C12.7479 114.292 8.79167 110.336 8.79167 105.5Z" fill="#554CAC"/>
</g>
</g>
<defs>
<filter id="filter0_d_37_111" x="-20" y="38.3542" width="251" height="154.292" filterUnits="userSpaceOnUse" color-interpolation-filters="sRGB">
<feFlood flood-opacity="0" result="BackgroundImageFix"/>
<feColorMatrix in="SourceAlpha" type="matrix" values="0 0 0 0 0 0 0 0 0 0 0 0 0 0 0 0 0 0 127 0" result="hardAlpha"/>
<feOffset dy="10"/>
<feGaussianBlur stdDeviation="10"/>
<feComposite in2="hardAlpha" operator="out"/>
<feColorMatrix type="matrix" values="0 0 0 0 0 0 0 0 0 0 0 0 0 0 0 0 0 0 0.25 0"/>
<feBlend mode="normal" in2="BackgroundImageFix" result="effect1_dropShadow_37_111"/>
<feBlend mode="normal" in="SourceGraphic" in2="effect1_dropShadow_37_111" result="shape"/>
</filter>
<clipPath id="clip0_37_111">
<rect width="211" height="211" fill="white"/>
</clipPath>
</defs>
</svg>
