<svg width="24" height="24" viewBox="0 0 24 24" fill="none" xmlns="http://www.w3.org/2000/svg">
<path fill-rule="evenodd" clip-rule="evenodd" d="M18.922 16.8L22.092 19.97L21.032 21.031L4.06 4.061L5.12 3L7.86 5.738C9.18525 5.24818 10.5871 4.99828 12 5C16.808 5 20.972 7.848 23 12C22.0667 13.918 20.664 15.5691 18.922 16.8ZM10.824 8.703L15.297 13.176C15.5202 12.5518 15.5615 11.8771 15.4162 11.2304C15.2709 10.5837 14.9449 9.99153 14.4762 9.52282C14.0075 9.05411 13.4153 8.72814 12.7686 8.58283C12.1219 8.43752 11.4472 8.47884 10.823 8.702L10.824 8.703ZM16.141 18.263C14.8154 18.7526 13.4131 19.0022 12 19C7.192 19 3.028 16.152 1 12C1.93327 10.082 3.33601 8.43091 5.078 7.2L8.703 10.824C8.47985 11.4482 8.43852 12.1229 8.58383 12.7696C8.72914 13.4163 9.05511 14.0085 9.52382 14.4772C9.99253 14.9459 10.5847 15.2719 11.2314 15.4172C11.8781 15.5625 12.5528 15.5212 13.177 15.298L16.141 18.262V18.263Z" fill="#999999"/>
</svg>
