<svg width="696" height="429" viewBox="0 0 696 429" fill="none" xmlns="http://www.w3.org/2000/svg">
<path d="M412.18 17.3501H282.819L191.35 108.819V238.181L282.819 329.65H412.18L503.65 238.181V108.819L412.18 17.3501ZM364.85 260.25H330.15V225.55H364.85V260.25ZM364.85 190.85H330.15V86.7501H364.85V190.85Z" fill="#EC221F"/>
<path d="M2.29545 397.727H7.45455L14.3636 414.591H14.6364L21.5455 397.727H26.7045V421H22.6591V405.011H22.4432L16.0114 420.932H12.9886L6.55682 404.977H6.34091V421H2.29545V397.727ZM38.7273 421.341C37.0227 421.341 35.5455 420.966 34.2955 420.216C33.0455 419.466 32.0758 418.417 31.3864 417.068C30.7045 415.72 30.3636 414.144 30.3636 412.341C30.3636 410.538 30.7045 408.958 31.3864 407.602C32.0758 406.246 33.0455 405.193 34.2955 404.443C35.5455 403.693 37.0227 403.318 38.7273 403.318C40.4318 403.318 41.9091 403.693 43.1591 404.443C44.4091 405.193 45.375 406.246 46.0568 407.602C46.7462 408.958 47.0909 410.538 47.0909 412.341C47.0909 414.144 46.7462 415.72 46.0568 417.068C45.375 418.417 44.4091 419.466 43.1591 420.216C41.9091 420.966 40.4318 421.341 38.7273 421.341ZM38.75 418.045C39.6742 418.045 40.447 417.792 41.0682 417.284C41.6894 416.769 42.1515 416.08 42.4545 415.216C42.7652 414.352 42.9205 413.39 42.9205 412.33C42.9205 411.261 42.7652 410.295 42.4545 409.432C42.1515 408.561 41.6894 407.867 41.0682 407.352C40.447 406.837 39.6742 406.58 38.75 406.58C37.803 406.58 37.0152 406.837 36.3864 407.352C35.7652 407.867 35.2992 408.561 34.9886 409.432C34.6856 410.295 34.5341 411.261 34.5341 412.33C34.5341 413.39 34.6856 414.352 34.9886 415.216C35.2992 416.08 35.7652 416.769 36.3864 417.284C37.0152 417.792 37.803 418.045 38.75 418.045ZM54.696 410.773V421H50.5824V397.727H54.6051V406.511H54.8097C55.2188 405.527 55.8513 404.75 56.7074 404.182C57.571 403.606 58.6695 403.318 60.0028 403.318C61.215 403.318 62.2718 403.572 63.1733 404.08C64.0748 404.587 64.7718 405.33 65.2642 406.307C65.7642 407.284 66.0142 408.477 66.0142 409.886V421H61.9006V410.523C61.9006 409.348 61.5975 408.436 60.9915 407.784C60.393 407.125 59.5521 406.795 58.4688 406.795C57.7415 406.795 57.09 406.955 56.5142 407.273C55.946 407.583 55.4991 408.034 55.1733 408.625C54.8551 409.216 54.696 409.932 54.696 410.773ZM77.821 421.341C76.1165 421.341 74.6392 420.966 73.3892 420.216C72.1392 419.466 71.1695 418.417 70.4801 417.068C69.7983 415.72 69.4574 414.144 69.4574 412.341C69.4574 410.538 69.7983 408.958 70.4801 407.602C71.1695 406.246 72.1392 405.193 73.3892 404.443C74.6392 403.693 76.1165 403.318 77.821 403.318C79.5256 403.318 81.0028 403.693 82.2528 404.443C83.5028 405.193 84.4688 406.246 85.1506 407.602C85.84 408.958 86.1847 410.538 86.1847 412.341C86.1847 414.144 85.84 415.72 85.1506 417.068C84.4688 418.417 83.5028 419.466 82.2528 420.216C81.0028 420.966 79.5256 421.341 77.821 421.341ZM77.8438 418.045C78.768 418.045 79.5407 417.792 80.1619 417.284C80.7831 416.769 81.2453 416.08 81.5483 415.216C81.8589 414.352 82.0142 413.39 82.0142 412.33C82.0142 411.261 81.8589 410.295 81.5483 409.432C81.2453 408.561 80.7831 407.867 80.1619 407.352C79.5407 406.837 78.768 406.58 77.8438 406.58C76.8968 406.58 76.1089 406.837 75.4801 407.352C74.8589 407.867 74.393 408.561 74.0824 409.432C73.7794 410.295 73.6278 411.261 73.6278 412.33C73.6278 413.39 73.7794 414.352 74.0824 415.216C74.393 416.08 74.8589 416.769 75.4801 417.284C76.1089 417.792 76.8968 418.045 77.8438 418.045ZM93.7898 410.773V421H89.6761V403.545H93.608V406.511H93.8125C94.214 405.534 94.8542 404.758 95.733 404.182C96.6193 403.606 97.714 403.318 99.017 403.318C100.222 403.318 101.271 403.576 102.165 404.091C103.066 404.606 103.763 405.352 104.256 406.33C104.756 407.307 105.002 408.492 104.994 409.886V421H100.881V410.523C100.881 409.356 100.578 408.443 99.9716 407.784C99.3731 407.125 98.5436 406.795 97.483 406.795C96.7633 406.795 96.1231 406.955 95.5625 407.273C95.0095 407.583 94.5739 408.034 94.2557 408.625C93.9451 409.216 93.7898 409.932 93.7898 410.773ZM117.114 421V403.545H121.045V406.511H121.25C121.614 405.511 122.216 404.731 123.057 404.17C123.898 403.602 124.902 403.318 126.068 403.318C127.25 403.318 128.246 403.606 129.057 404.182C129.875 404.75 130.451 405.527 130.784 406.511H130.966C131.352 405.542 132.004 404.769 132.92 404.193C133.845 403.61 134.939 403.318 136.205 403.318C137.811 403.318 139.121 403.826 140.136 404.841C141.152 405.856 141.659 407.337 141.659 409.284V421H137.534V409.92C137.534 408.837 137.246 408.045 136.67 407.545C136.095 407.038 135.39 406.784 134.557 406.784C133.564 406.784 132.788 407.095 132.227 407.716C131.674 408.33 131.398 409.129 131.398 410.114V421H127.364V409.75C127.364 408.848 127.091 408.129 126.545 407.591C126.008 407.053 125.303 406.784 124.432 406.784C123.841 406.784 123.303 406.936 122.818 407.239C122.333 407.534 121.947 407.955 121.659 408.5C121.371 409.038 121.227 409.667 121.227 410.386V421H117.114ZM150.855 421.352C149.749 421.352 148.753 421.155 147.866 420.761C146.988 420.36 146.291 419.769 145.776 418.989C145.268 418.208 145.014 417.246 145.014 416.102C145.014 415.117 145.196 414.303 145.56 413.659C145.923 413.015 146.42 412.5 147.048 412.114C147.677 411.727 148.385 411.436 149.173 411.239C149.969 411.034 150.791 410.886 151.639 410.795C152.662 410.689 153.491 410.595 154.128 410.511C154.764 410.42 155.226 410.284 155.514 410.102C155.81 409.913 155.957 409.621 155.957 409.227V409.159C155.957 408.303 155.704 407.64 155.196 407.17C154.688 406.701 153.957 406.466 153.003 406.466C151.995 406.466 151.196 406.686 150.605 407.125C150.022 407.564 149.628 408.083 149.423 408.682L145.582 408.136C145.885 407.076 146.385 406.189 147.082 405.477C147.779 404.758 148.632 404.22 149.639 403.864C150.647 403.5 151.76 403.318 152.98 403.318C153.821 403.318 154.658 403.417 155.491 403.614C156.325 403.811 157.086 404.136 157.776 404.591C158.465 405.038 159.018 405.648 159.435 406.42C159.859 407.193 160.071 408.159 160.071 409.318V421H156.116V418.602H155.98C155.73 419.087 155.378 419.542 154.923 419.966C154.476 420.383 153.912 420.72 153.23 420.977C152.556 421.227 151.764 421.352 150.855 421.352ZM151.923 418.33C152.749 418.33 153.465 418.167 154.071 417.841C154.677 417.508 155.143 417.068 155.469 416.523C155.802 415.977 155.969 415.383 155.969 414.739V412.682C155.84 412.788 155.62 412.886 155.31 412.977C155.007 413.068 154.666 413.148 154.287 413.216C153.908 413.284 153.533 413.345 153.162 413.398C152.791 413.451 152.469 413.496 152.196 413.534C151.582 413.617 151.033 413.754 150.548 413.943C150.063 414.133 149.681 414.398 149.401 414.739C149.12 415.072 148.98 415.504 148.98 416.034C148.98 416.792 149.257 417.364 149.81 417.75C150.363 418.136 151.067 418.33 151.923 418.33ZM169.23 421.352C168.124 421.352 167.128 421.155 166.241 420.761C165.363 420.36 164.666 419.769 164.151 418.989C163.643 418.208 163.389 417.246 163.389 416.102C163.389 415.117 163.571 414.303 163.935 413.659C164.298 413.015 164.795 412.5 165.423 412.114C166.052 411.727 166.76 411.436 167.548 411.239C168.344 411.034 169.166 410.886 170.014 410.795C171.037 410.689 171.866 410.595 172.503 410.511C173.139 410.42 173.601 410.284 173.889 410.102C174.185 409.913 174.332 409.621 174.332 409.227V409.159C174.332 408.303 174.079 407.64 173.571 407.17C173.063 406.701 172.332 406.466 171.378 406.466C170.37 406.466 169.571 406.686 168.98 407.125C168.397 407.564 168.003 408.083 167.798 408.682L163.957 408.136C164.26 407.076 164.76 406.189 165.457 405.477C166.154 404.758 167.007 404.22 168.014 403.864C169.022 403.5 170.135 403.318 171.355 403.318C172.196 403.318 173.033 403.417 173.866 403.614C174.7 403.811 175.461 404.136 176.151 404.591C176.84 405.038 177.393 405.648 177.81 406.42C178.234 407.193 178.446 408.159 178.446 409.318V421H174.491V418.602H174.355C174.105 419.087 173.753 419.542 173.298 419.966C172.851 420.383 172.287 420.72 171.605 420.977C170.931 421.227 170.139 421.352 169.23 421.352ZM170.298 418.33C171.124 418.33 171.84 418.167 172.446 417.841C173.052 417.508 173.518 417.068 173.844 416.523C174.177 415.977 174.344 415.383 174.344 414.739V412.682C174.215 412.788 173.995 412.886 173.685 412.977C173.382 413.068 173.041 413.148 172.662 413.216C172.283 413.284 171.908 413.345 171.537 413.398C171.166 413.451 170.844 413.496 170.571 413.534C169.957 413.617 169.408 413.754 168.923 413.943C168.438 414.133 168.056 414.398 167.776 414.739C167.495 415.072 167.355 415.504 167.355 416.034C167.355 416.792 167.632 417.364 168.185 417.75C168.738 418.136 169.442 418.33 170.298 418.33ZM191.423 403.545V406.727H181.105V403.545H191.423ZM183.685 421V401.898C183.685 400.723 183.927 399.746 184.412 398.966C184.904 398.186 185.563 397.602 186.389 397.216C187.215 396.83 188.132 396.636 189.139 396.636C189.851 396.636 190.484 396.693 191.037 396.807C191.59 396.92 191.999 397.023 192.264 397.114L191.446 400.295C191.272 400.242 191.052 400.189 190.787 400.136C190.522 400.076 190.226 400.045 189.901 400.045C189.135 400.045 188.594 400.231 188.276 400.602C187.965 400.966 187.81 401.489 187.81 402.17V421H183.685ZM215.412 404.125C215.306 403.133 214.859 402.36 214.071 401.807C213.291 401.254 212.276 400.977 211.026 400.977C210.147 400.977 209.393 401.11 208.764 401.375C208.135 401.64 207.654 402 207.321 402.455C206.988 402.909 206.817 403.428 206.81 404.011C206.81 404.496 206.92 404.917 207.139 405.273C207.366 405.629 207.673 405.932 208.06 406.182C208.446 406.424 208.874 406.629 209.344 406.795C209.813 406.962 210.287 407.102 210.764 407.216L212.946 407.761C213.825 407.966 214.67 408.242 215.48 408.591C216.298 408.939 217.029 409.379 217.673 409.909C218.325 410.439 218.84 411.08 219.219 411.83C219.598 412.58 219.787 413.458 219.787 414.466C219.787 415.83 219.438 417.03 218.741 418.068C218.045 419.098 217.037 419.905 215.719 420.489C214.408 421.064 212.821 421.352 210.957 421.352C209.147 421.352 207.575 421.072 206.241 420.511C204.916 419.951 203.878 419.133 203.128 418.057C202.385 416.981 201.984 415.67 201.923 414.125H206.071C206.132 414.936 206.382 415.61 206.821 416.148C207.26 416.686 207.832 417.087 208.537 417.352C209.249 417.617 210.045 417.75 210.923 417.75C211.84 417.75 212.643 417.614 213.332 417.341C214.029 417.061 214.575 416.674 214.969 416.182C215.363 415.682 215.563 415.098 215.571 414.432C215.563 413.826 215.385 413.326 215.037 412.932C214.688 412.53 214.2 412.197 213.571 411.932C212.95 411.659 212.223 411.417 211.389 411.205L208.741 410.523C206.825 410.03 205.31 409.284 204.196 408.284C203.09 407.277 202.537 405.939 202.537 404.273C202.537 402.902 202.908 401.701 203.651 400.67C204.401 399.64 205.42 398.841 206.707 398.273C207.995 397.697 209.454 397.409 211.082 397.409C212.734 397.409 214.181 397.697 215.423 398.273C216.673 398.841 217.654 399.633 218.366 400.648C219.079 401.655 219.446 402.814 219.469 404.125H215.412ZM228.386 421.352C227.28 421.352 226.284 421.155 225.398 420.761C224.519 420.36 223.822 419.769 223.307 418.989C222.799 418.208 222.545 417.246 222.545 416.102C222.545 415.117 222.727 414.303 223.091 413.659C223.455 413.015 223.951 412.5 224.58 412.114C225.208 411.727 225.917 411.436 226.705 411.239C227.5 411.034 228.322 410.886 229.17 410.795C230.193 410.689 231.023 410.595 231.659 410.511C232.295 410.42 232.758 410.284 233.045 410.102C233.341 409.913 233.489 409.621 233.489 409.227V409.159C233.489 408.303 233.235 407.64 232.727 407.17C232.22 406.701 231.489 406.466 230.534 406.466C229.527 406.466 228.727 406.686 228.136 407.125C227.553 407.564 227.159 408.083 226.955 408.682L223.114 408.136C223.417 407.076 223.917 406.189 224.614 405.477C225.311 404.758 226.163 404.22 227.17 403.864C228.178 403.5 229.292 403.318 230.511 403.318C231.352 403.318 232.189 403.417 233.023 403.614C233.856 403.811 234.617 404.136 235.307 404.591C235.996 405.038 236.549 405.648 236.966 406.42C237.39 407.193 237.602 408.159 237.602 409.318V421H233.648V418.602H233.511C233.261 419.087 232.909 419.542 232.455 419.966C232.008 420.383 231.443 420.72 230.761 420.977C230.087 421.227 229.295 421.352 228.386 421.352ZM229.455 418.33C230.28 418.33 230.996 418.167 231.602 417.841C232.208 417.508 232.674 417.068 233 416.523C233.333 415.977 233.5 415.383 233.5 414.739V412.682C233.371 412.788 233.152 412.886 232.841 412.977C232.538 413.068 232.197 413.148 231.818 413.216C231.439 413.284 231.064 413.345 230.693 413.398C230.322 413.451 230 413.496 229.727 413.534C229.114 413.617 228.564 413.754 228.08 413.943C227.595 414.133 227.212 414.398 226.932 414.739C226.652 415.072 226.511 415.504 226.511 416.034C226.511 416.792 226.788 417.364 227.341 417.75C227.894 418.136 228.598 418.33 229.455 418.33ZM241.739 421V403.545H245.727V406.455H245.909C246.227 405.447 246.773 404.67 247.545 404.125C248.326 403.572 249.216 403.295 250.216 403.295C250.443 403.295 250.697 403.307 250.977 403.33C251.265 403.345 251.504 403.371 251.693 403.409V407.193C251.519 407.133 251.242 407.08 250.864 407.034C250.492 406.981 250.133 406.955 249.784 406.955C249.034 406.955 248.36 407.117 247.761 407.443C247.17 407.761 246.705 408.205 246.364 408.773C246.023 409.341 245.852 409.996 245.852 410.739V421H241.739ZM259.136 421.352C258.03 421.352 257.034 421.155 256.148 420.761C255.269 420.36 254.572 419.769 254.057 418.989C253.549 418.208 253.295 417.246 253.295 416.102C253.295 415.117 253.477 414.303 253.841 413.659C254.205 413.015 254.701 412.5 255.33 412.114C255.958 411.727 256.667 411.436 257.455 411.239C258.25 411.034 259.072 410.886 259.92 410.795C260.943 410.689 261.773 410.595 262.409 410.511C263.045 410.42 263.508 410.284 263.795 410.102C264.091 409.913 264.239 409.621 264.239 409.227V409.159C264.239 408.303 263.985 407.64 263.477 407.17C262.97 406.701 262.239 406.466 261.284 406.466C260.277 406.466 259.477 406.686 258.886 407.125C258.303 407.564 257.909 408.083 257.705 408.682L253.864 408.136C254.167 407.076 254.667 406.189 255.364 405.477C256.061 404.758 256.913 404.22 257.92 403.864C258.928 403.5 260.042 403.318 261.261 403.318C262.102 403.318 262.939 403.417 263.773 403.614C264.606 403.811 265.367 404.136 266.057 404.591C266.746 405.038 267.299 405.648 267.716 406.42C268.14 407.193 268.352 408.159 268.352 409.318V421H264.398V418.602H264.261C264.011 419.087 263.659 419.542 263.205 419.966C262.758 420.383 262.193 420.72 261.511 420.977C260.837 421.227 260.045 421.352 259.136 421.352ZM260.205 418.33C261.03 418.33 261.746 418.167 262.352 417.841C262.958 417.508 263.424 417.068 263.75 416.523C264.083 415.977 264.25 415.383 264.25 414.739V412.682C264.121 412.788 263.902 412.886 263.591 412.977C263.288 413.068 262.947 413.148 262.568 413.216C262.189 413.284 261.814 413.345 261.443 413.398C261.072 413.451 260.75 413.496 260.477 413.534C259.864 413.617 259.314 413.754 258.83 413.943C258.345 414.133 257.962 414.398 257.682 414.739C257.402 415.072 257.261 415.504 257.261 416.034C257.261 416.792 257.538 417.364 258.091 417.75C258.644 418.136 259.348 418.33 260.205 418.33ZM276.602 410.773V421H272.489V403.545H276.42V406.511H276.625C277.027 405.534 277.667 404.758 278.545 404.182C279.432 403.606 280.527 403.318 281.83 403.318C283.034 403.318 284.083 403.576 284.977 404.091C285.879 404.606 286.576 405.352 287.068 406.33C287.568 407.307 287.814 408.492 287.807 409.886V421H283.693V410.523C283.693 409.356 283.39 408.443 282.784 407.784C282.186 407.125 281.356 406.795 280.295 406.795C279.576 406.795 278.936 406.955 278.375 407.273C277.822 407.583 277.386 408.034 277.068 408.625C276.758 409.216 276.602 409.932 276.602 410.773ZM297.011 421.352C295.905 421.352 294.909 421.155 294.023 420.761C293.144 420.36 292.447 419.769 291.932 418.989C291.424 418.208 291.17 417.246 291.17 416.102C291.17 415.117 291.352 414.303 291.716 413.659C292.08 413.015 292.576 412.5 293.205 412.114C293.833 411.727 294.542 411.436 295.33 411.239C296.125 411.034 296.947 410.886 297.795 410.795C298.818 410.689 299.648 410.595 300.284 410.511C300.92 410.42 301.383 410.284 301.67 410.102C301.966 409.913 302.114 409.621 302.114 409.227V409.159C302.114 408.303 301.86 407.64 301.352 407.17C300.845 406.701 300.114 406.466 299.159 406.466C298.152 406.466 297.352 406.686 296.761 407.125C296.178 407.564 295.784 408.083 295.58 408.682L291.739 408.136C292.042 407.076 292.542 406.189 293.239 405.477C293.936 404.758 294.788 404.22 295.795 403.864C296.803 403.5 297.917 403.318 299.136 403.318C299.977 403.318 300.814 403.417 301.648 403.614C302.481 403.811 303.242 404.136 303.932 404.591C304.621 405.038 305.174 405.648 305.591 406.42C306.015 407.193 306.227 408.159 306.227 409.318V421H302.273V418.602H302.136C301.886 419.087 301.534 419.542 301.08 419.966C300.633 420.383 300.068 420.72 299.386 420.977C298.712 421.227 297.92 421.352 297.011 421.352ZM298.08 418.33C298.905 418.33 299.621 418.167 300.227 417.841C300.833 417.508 301.299 417.068 301.625 416.523C301.958 415.977 302.125 415.383 302.125 414.739V412.682C301.996 412.788 301.777 412.886 301.466 412.977C301.163 413.068 300.822 413.148 300.443 413.216C300.064 413.284 299.689 413.345 299.318 413.398C298.947 413.451 298.625 413.496 298.352 413.534C297.739 413.617 297.189 413.754 296.705 413.943C296.22 414.133 295.837 414.398 295.557 414.739C295.277 415.072 295.136 415.504 295.136 416.034C295.136 416.792 295.413 417.364 295.966 417.75C296.519 418.136 297.223 418.33 298.08 418.33ZM318.483 421V397.727H327.21C328.998 397.727 330.498 398.061 331.71 398.727C332.93 399.394 333.85 400.311 334.472 401.477C335.1 402.636 335.415 403.955 335.415 405.432C335.415 406.924 335.1 408.25 334.472 409.409C333.843 410.568 332.915 411.481 331.688 412.148C330.46 412.807 328.949 413.136 327.153 413.136H321.369V409.67H326.585C327.631 409.67 328.487 409.489 329.153 409.125C329.82 408.761 330.313 408.261 330.631 407.625C330.956 406.989 331.119 406.258 331.119 405.432C331.119 404.606 330.956 403.879 330.631 403.25C330.313 402.621 329.816 402.133 329.142 401.784C328.475 401.428 327.616 401.25 326.562 401.25H322.699V421H318.483ZM338.895 421V403.545H342.884V406.455H343.065C343.384 405.447 343.929 404.67 344.702 404.125C345.482 403.572 346.372 403.295 347.372 403.295C347.599 403.295 347.853 403.307 348.134 403.33C348.421 403.345 348.66 403.371 348.849 403.409V407.193C348.675 407.133 348.399 407.08 348.02 407.034C347.649 406.981 347.289 406.955 346.94 406.955C346.19 406.955 345.516 407.117 344.918 407.443C344.327 407.761 343.861 408.205 343.52 408.773C343.179 409.341 343.009 409.996 343.009 410.739V421H338.895ZM356.293 421.352C355.187 421.352 354.19 421.155 353.304 420.761C352.425 420.36 351.728 419.769 351.213 418.989C350.705 418.208 350.452 417.246 350.452 416.102C350.452 415.117 350.634 414.303 350.997 413.659C351.361 413.015 351.857 412.5 352.486 412.114C353.115 411.727 353.823 411.436 354.611 411.239C355.406 411.034 356.228 410.886 357.077 410.795C358.099 410.689 358.929 410.595 359.565 410.511C360.202 410.42 360.664 410.284 360.952 410.102C361.247 409.913 361.395 409.621 361.395 409.227V409.159C361.395 408.303 361.141 407.64 360.634 407.17C360.126 406.701 359.395 406.466 358.44 406.466C357.433 406.466 356.634 406.686 356.043 407.125C355.459 407.564 355.065 408.083 354.861 408.682L351.02 408.136C351.323 407.076 351.823 406.189 352.52 405.477C353.217 404.758 354.069 404.22 355.077 403.864C356.084 403.5 357.198 403.318 358.418 403.318C359.259 403.318 360.096 403.417 360.929 403.614C361.762 403.811 362.524 404.136 363.213 404.591C363.902 405.038 364.455 405.648 364.872 406.42C365.296 407.193 365.509 408.159 365.509 409.318V421H361.554V418.602H361.418C361.168 419.087 360.815 419.542 360.361 419.966C359.914 420.383 359.349 420.72 358.668 420.977C357.993 421.227 357.202 421.352 356.293 421.352ZM357.361 418.33C358.187 418.33 358.902 418.167 359.509 417.841C360.115 417.508 360.58 417.068 360.906 416.523C361.24 415.977 361.406 415.383 361.406 414.739V412.682C361.277 412.788 361.058 412.886 360.747 412.977C360.444 413.068 360.103 413.148 359.724 413.216C359.346 413.284 358.971 413.345 358.599 413.398C358.228 413.451 357.906 413.496 357.634 413.534C357.02 413.617 356.471 413.754 355.986 413.943C355.501 414.133 355.118 414.398 354.838 414.739C354.558 415.072 354.418 415.504 354.418 416.034C354.418 416.792 354.694 417.364 355.247 417.75C355.8 418.136 356.505 418.33 357.361 418.33ZM383.44 408.159L379.69 408.568C379.584 408.189 379.399 407.833 379.134 407.5C378.876 407.167 378.527 406.898 378.088 406.693C377.649 406.489 377.111 406.386 376.474 406.386C375.618 406.386 374.899 406.572 374.315 406.943C373.74 407.314 373.455 407.795 373.463 408.386C373.455 408.894 373.641 409.307 374.02 409.625C374.406 409.943 375.043 410.205 375.929 410.409L378.906 411.045C380.558 411.402 381.785 411.966 382.588 412.739C383.399 413.511 383.808 414.523 383.815 415.773C383.808 416.871 383.486 417.841 382.849 418.682C382.221 419.515 381.346 420.167 380.224 420.636C379.103 421.106 377.815 421.341 376.361 421.341C374.224 421.341 372.505 420.894 371.202 420C369.899 419.098 369.122 417.845 368.872 416.239L372.884 415.852C373.065 416.64 373.452 417.235 374.043 417.636C374.634 418.038 375.402 418.239 376.349 418.239C377.327 418.239 378.111 418.038 378.702 417.636C379.3 417.235 379.599 416.739 379.599 416.148C379.599 415.648 379.406 415.235 379.02 414.909C378.641 414.583 378.05 414.333 377.247 414.159L374.27 413.534C372.596 413.186 371.357 412.598 370.554 411.773C369.751 410.939 369.353 409.886 369.361 408.614C369.353 407.538 369.645 406.606 370.236 405.818C370.834 405.023 371.664 404.409 372.724 403.977C373.793 403.538 375.024 403.318 376.418 403.318C378.463 403.318 380.073 403.754 381.247 404.625C382.429 405.496 383.16 406.674 383.44 408.159ZM392.23 421.352C391.124 421.352 390.128 421.155 389.241 420.761C388.363 420.36 387.666 419.769 387.151 418.989C386.643 418.208 386.389 417.246 386.389 416.102C386.389 415.117 386.571 414.303 386.935 413.659C387.298 413.015 387.795 412.5 388.423 412.114C389.052 411.727 389.76 411.436 390.548 411.239C391.344 411.034 392.166 410.886 393.014 410.795C394.037 410.689 394.866 410.595 395.503 410.511C396.139 410.42 396.601 410.284 396.889 410.102C397.185 409.913 397.332 409.621 397.332 409.227V409.159C397.332 408.303 397.079 407.64 396.571 407.17C396.063 406.701 395.332 406.466 394.378 406.466C393.37 406.466 392.571 406.686 391.98 407.125C391.397 407.564 391.003 408.083 390.798 408.682L386.957 408.136C387.26 407.076 387.76 406.189 388.457 405.477C389.154 404.758 390.007 404.22 391.014 403.864C392.022 403.5 393.135 403.318 394.355 403.318C395.196 403.318 396.033 403.417 396.866 403.614C397.7 403.811 398.461 404.136 399.151 404.591C399.84 405.038 400.393 405.648 400.81 406.42C401.234 407.193 401.446 408.159 401.446 409.318V421H397.491V418.602H397.355C397.105 419.087 396.753 419.542 396.298 419.966C395.851 420.383 395.287 420.72 394.605 420.977C393.931 421.227 393.139 421.352 392.23 421.352ZM393.298 418.33C394.124 418.33 394.84 418.167 395.446 417.841C396.052 417.508 396.518 417.068 396.844 416.523C397.177 415.977 397.344 415.383 397.344 414.739V412.682C397.215 412.788 396.995 412.886 396.685 412.977C396.382 413.068 396.041 413.148 395.662 413.216C395.283 413.284 394.908 413.345 394.537 413.398C394.166 413.451 393.844 413.496 393.571 413.534C392.957 413.617 392.408 413.754 391.923 413.943C391.438 414.133 391.056 414.398 390.776 414.739C390.495 415.072 390.355 415.504 390.355 416.034C390.355 416.792 390.632 417.364 391.185 417.75C391.738 418.136 392.442 418.33 393.298 418.33ZM405.582 421V403.545H409.571V406.455H409.753C410.071 405.447 410.616 404.67 411.389 404.125C412.17 403.572 413.06 403.295 414.06 403.295C414.287 403.295 414.541 403.307 414.821 403.33C415.109 403.345 415.348 403.371 415.537 403.409V407.193C415.363 407.133 415.086 407.08 414.707 407.034C414.336 406.981 413.976 406.955 413.628 406.955C412.878 406.955 412.204 407.117 411.605 407.443C411.014 407.761 410.548 408.205 410.207 408.773C409.866 409.341 409.696 409.996 409.696 410.739V421H405.582ZM422.98 421.352C421.874 421.352 420.878 421.155 419.991 420.761C419.113 420.36 418.416 419.769 417.901 418.989C417.393 418.208 417.139 417.246 417.139 416.102C417.139 415.117 417.321 414.303 417.685 413.659C418.048 413.015 418.545 412.5 419.173 412.114C419.802 411.727 420.51 411.436 421.298 411.239C422.094 411.034 422.916 410.886 423.764 410.795C424.787 410.689 425.616 410.595 426.253 410.511C426.889 410.42 427.351 410.284 427.639 410.102C427.935 409.913 428.082 409.621 428.082 409.227V409.159C428.082 408.303 427.829 407.64 427.321 407.17C426.813 406.701 426.082 406.466 425.128 406.466C424.12 406.466 423.321 406.686 422.73 407.125C422.147 407.564 421.753 408.083 421.548 408.682L417.707 408.136C418.01 407.076 418.51 406.189 419.207 405.477C419.904 404.758 420.757 404.22 421.764 403.864C422.772 403.5 423.885 403.318 425.105 403.318C425.946 403.318 426.783 403.417 427.616 403.614C428.45 403.811 429.211 404.136 429.901 404.591C430.59 405.038 431.143 405.648 431.56 406.42C431.984 407.193 432.196 408.159 432.196 409.318V421H428.241V418.602H428.105C427.855 419.087 427.503 419.542 427.048 419.966C426.601 420.383 426.037 420.72 425.355 420.977C424.681 421.227 423.889 421.352 422.98 421.352ZM424.048 418.33C424.874 418.33 425.59 418.167 426.196 417.841C426.802 417.508 427.268 417.068 427.594 416.523C427.927 415.977 428.094 415.383 428.094 414.739V412.682C427.965 412.788 427.745 412.886 427.435 412.977C427.132 413.068 426.791 413.148 426.412 413.216C426.033 413.284 425.658 413.345 425.287 413.398C424.916 413.451 424.594 413.496 424.321 413.534C423.707 413.617 423.158 413.754 422.673 413.943C422.188 414.133 421.806 414.398 421.526 414.739C421.245 415.072 421.105 415.504 421.105 416.034C421.105 416.792 421.382 417.364 421.935 417.75C422.488 418.136 423.192 418.33 424.048 418.33ZM440.446 410.773V421H436.332V403.545H440.264V406.511H440.469C440.87 405.534 441.51 404.758 442.389 404.182C443.276 403.606 444.37 403.318 445.673 403.318C446.878 403.318 447.927 403.576 448.821 404.091C449.723 404.606 450.42 405.352 450.912 406.33C451.412 407.307 451.658 408.492 451.651 409.886V421H447.537V410.523C447.537 409.356 447.234 408.443 446.628 407.784C446.029 407.125 445.2 406.795 444.139 406.795C443.42 406.795 442.779 406.955 442.219 407.273C441.666 407.583 441.23 408.034 440.912 408.625C440.601 409.216 440.446 409.932 440.446 410.773ZM460.855 421.352C459.749 421.352 458.753 421.155 457.866 420.761C456.988 420.36 456.291 419.769 455.776 418.989C455.268 418.208 455.014 417.246 455.014 416.102C455.014 415.117 455.196 414.303 455.56 413.659C455.923 413.015 456.42 412.5 457.048 412.114C457.677 411.727 458.385 411.436 459.173 411.239C459.969 411.034 460.791 410.886 461.639 410.795C462.662 410.689 463.491 410.595 464.128 410.511C464.764 410.42 465.226 410.284 465.514 410.102C465.81 409.913 465.957 409.621 465.957 409.227V409.159C465.957 408.303 465.704 407.64 465.196 407.17C464.688 406.701 463.957 406.466 463.003 406.466C461.995 406.466 461.196 406.686 460.605 407.125C460.022 407.564 459.628 408.083 459.423 408.682L455.582 408.136C455.885 407.076 456.385 406.189 457.082 405.477C457.779 404.758 458.632 404.22 459.639 403.864C460.647 403.5 461.76 403.318 462.98 403.318C463.821 403.318 464.658 403.417 465.491 403.614C466.325 403.811 467.086 404.136 467.776 404.591C468.465 405.038 469.018 405.648 469.435 406.42C469.859 407.193 470.071 408.159 470.071 409.318V421H466.116V418.602H465.98C465.73 419.087 465.378 419.542 464.923 419.966C464.476 420.383 463.912 420.72 463.23 420.977C462.556 421.227 461.764 421.352 460.855 421.352ZM461.923 418.33C462.749 418.33 463.465 418.167 464.071 417.841C464.677 417.508 465.143 417.068 465.469 416.523C465.802 415.977 465.969 415.383 465.969 414.739V412.682C465.84 412.788 465.62 412.886 465.31 412.977C465.007 413.068 464.666 413.148 464.287 413.216C463.908 413.284 463.533 413.345 463.162 413.398C462.791 413.451 462.469 413.496 462.196 413.534C461.582 413.617 461.033 413.754 460.548 413.943C460.063 414.133 459.681 414.398 459.401 414.739C459.12 415.072 458.98 415.504 458.98 416.034C458.98 416.792 459.257 417.364 459.81 417.75C460.363 418.136 461.067 418.33 461.923 418.33ZM495.94 408.159L492.19 408.568C492.084 408.189 491.899 407.833 491.634 407.5C491.376 407.167 491.027 406.898 490.588 406.693C490.149 406.489 489.611 406.386 488.974 406.386C488.118 406.386 487.399 406.572 486.815 406.943C486.24 407.314 485.955 407.795 485.963 408.386C485.955 408.894 486.141 409.307 486.52 409.625C486.906 409.943 487.543 410.205 488.429 410.409L491.406 411.045C493.058 411.402 494.285 411.966 495.088 412.739C495.899 413.511 496.308 414.523 496.315 415.773C496.308 416.871 495.986 417.841 495.349 418.682C494.721 419.515 493.846 420.167 492.724 420.636C491.603 421.106 490.315 421.341 488.861 421.341C486.724 421.341 485.005 420.894 483.702 420C482.399 419.098 481.622 417.845 481.372 416.239L485.384 415.852C485.565 416.64 485.952 417.235 486.543 417.636C487.134 418.038 487.902 418.239 488.849 418.239C489.827 418.239 490.611 418.038 491.202 417.636C491.8 417.235 492.099 416.739 492.099 416.148C492.099 415.648 491.906 415.235 491.52 414.909C491.141 414.583 490.55 414.333 489.747 414.159L486.77 413.534C485.096 413.186 483.857 412.598 483.054 411.773C482.251 410.939 481.853 409.886 481.861 408.614C481.853 407.538 482.145 406.606 482.736 405.818C483.334 405.023 484.164 404.409 485.224 403.977C486.293 403.538 487.524 403.318 488.918 403.318C490.963 403.318 492.573 403.754 493.747 404.625C494.929 405.496 495.66 406.674 495.94 408.159ZM507.435 421.341C505.685 421.341 504.173 420.977 502.901 420.25C501.635 419.515 500.662 418.477 499.98 417.136C499.298 415.788 498.957 414.201 498.957 412.375C498.957 410.58 499.298 409.004 499.98 407.648C500.67 406.284 501.632 405.223 502.866 404.466C504.101 403.701 505.552 403.318 507.219 403.318C508.295 403.318 509.31 403.492 510.264 403.841C511.226 404.182 512.075 404.712 512.81 405.432C513.552 406.152 514.135 407.068 514.56 408.182C514.984 409.288 515.196 410.606 515.196 412.136V413.398H500.889V410.625H511.253C511.245 409.837 511.075 409.136 510.741 408.523C510.408 407.902 509.942 407.413 509.344 407.057C508.753 406.701 508.063 406.523 507.276 406.523C506.435 406.523 505.696 406.727 505.06 407.136C504.423 407.538 503.927 408.068 503.571 408.727C503.223 409.379 503.045 410.095 503.037 410.875V413.295C503.037 414.311 503.223 415.182 503.594 415.909C503.965 416.629 504.484 417.182 505.151 417.568C505.817 417.947 506.598 418.136 507.491 418.136C508.09 418.136 508.632 418.053 509.116 417.886C509.601 417.712 510.022 417.458 510.378 417.125C510.734 416.792 511.003 416.379 511.185 415.886L515.026 416.318C514.783 417.333 514.321 418.22 513.639 418.977C512.965 419.727 512.101 420.311 511.048 420.727C509.995 421.136 508.791 421.341 507.435 421.341ZM525.153 421.307C523.782 421.307 522.555 420.955 521.472 420.25C520.388 419.545 519.532 418.523 518.903 417.182C518.275 415.841 517.96 414.212 517.96 412.295C517.96 410.356 518.278 408.72 518.915 407.386C519.559 406.045 520.426 405.034 521.517 404.352C522.608 403.663 523.824 403.318 525.165 403.318C526.188 403.318 527.028 403.492 527.688 403.841C528.347 404.182 528.869 404.595 529.256 405.08C529.642 405.557 529.941 406.008 530.153 406.432H530.324V397.727H534.449V421H530.403V418.25H530.153C529.941 418.674 529.634 419.125 529.233 419.602C528.831 420.072 528.301 420.473 527.642 420.807C526.983 421.14 526.153 421.307 525.153 421.307ZM526.301 417.932C527.172 417.932 527.915 417.697 528.528 417.227C529.142 416.75 529.608 416.087 529.926 415.239C530.244 414.39 530.403 413.402 530.403 412.273C530.403 411.144 530.244 410.163 529.926 409.33C529.616 408.496 529.153 407.848 528.54 407.386C527.934 406.924 527.188 406.693 526.301 406.693C525.384 406.693 524.619 406.932 524.006 407.409C523.392 407.886 522.93 408.545 522.619 409.386C522.309 410.227 522.153 411.189 522.153 412.273C522.153 413.364 522.309 414.337 522.619 415.193C522.938 416.042 523.403 416.712 524.017 417.205C524.638 417.689 525.4 417.932 526.301 417.932ZM543.855 421.352C542.749 421.352 541.753 421.155 540.866 420.761C539.988 420.36 539.291 419.769 538.776 418.989C538.268 418.208 538.014 417.246 538.014 416.102C538.014 415.117 538.196 414.303 538.56 413.659C538.923 413.015 539.42 412.5 540.048 412.114C540.677 411.727 541.385 411.436 542.173 411.239C542.969 411.034 543.791 410.886 544.639 410.795C545.662 410.689 546.491 410.595 547.128 410.511C547.764 410.42 548.226 410.284 548.514 410.102C548.81 409.913 548.957 409.621 548.957 409.227V409.159C548.957 408.303 548.704 407.64 548.196 407.17C547.688 406.701 546.957 406.466 546.003 406.466C544.995 406.466 544.196 406.686 543.605 407.125C543.022 407.564 542.628 408.083 542.423 408.682L538.582 408.136C538.885 407.076 539.385 406.189 540.082 405.477C540.779 404.758 541.632 404.22 542.639 403.864C543.647 403.5 544.76 403.318 545.98 403.318C546.821 403.318 547.658 403.417 548.491 403.614C549.325 403.811 550.086 404.136 550.776 404.591C551.465 405.038 552.018 405.648 552.435 406.42C552.859 407.193 553.071 408.159 553.071 409.318V421H549.116V418.602H548.98C548.73 419.087 548.378 419.542 547.923 419.966C547.476 420.383 546.912 420.72 546.23 420.977C545.556 421.227 544.764 421.352 543.855 421.352ZM544.923 418.33C545.749 418.33 546.465 418.167 547.071 417.841C547.677 417.508 548.143 417.068 548.469 416.523C548.802 415.977 548.969 415.383 548.969 414.739V412.682C548.84 412.788 548.62 412.886 548.31 412.977C548.007 413.068 547.666 413.148 547.287 413.216C546.908 413.284 546.533 413.345 546.162 413.398C545.791 413.451 545.469 413.496 545.196 413.534C544.582 413.617 544.033 413.754 543.548 413.943C543.063 414.133 542.681 414.398 542.401 414.739C542.12 415.072 541.98 415.504 541.98 416.034C541.98 416.792 542.257 417.364 542.81 417.75C543.363 418.136 544.067 418.33 544.923 418.33ZM561.321 410.773V421H557.207V403.545H561.139V406.511H561.344C561.745 405.534 562.385 404.758 563.264 404.182C564.151 403.606 565.245 403.318 566.548 403.318C567.753 403.318 568.802 403.576 569.696 404.091C570.598 404.606 571.295 405.352 571.787 406.33C572.287 407.307 572.533 408.492 572.526 409.886V421H568.412V410.523C568.412 409.356 568.109 408.443 567.503 407.784C566.904 407.125 566.075 406.795 565.014 406.795C564.295 406.795 563.654 406.955 563.094 407.273C562.541 407.583 562.105 408.034 561.787 408.625C561.476 409.216 561.321 409.932 561.321 410.773ZM584.298 427.909C582.821 427.909 581.552 427.708 580.491 427.307C579.431 426.913 578.579 426.383 577.935 425.716C577.291 425.049 576.844 424.311 576.594 423.5L580.298 422.602C580.465 422.943 580.707 423.28 581.026 423.614C581.344 423.955 581.772 424.235 582.31 424.455C582.855 424.682 583.541 424.795 584.366 424.795C585.533 424.795 586.499 424.511 587.264 423.943C588.029 423.383 588.412 422.458 588.412 421.17V417.864H588.207C587.995 418.288 587.685 418.723 587.276 419.17C586.874 419.617 586.34 419.992 585.673 420.295C585.014 420.598 584.185 420.75 583.185 420.75C581.844 420.75 580.628 420.436 579.537 419.807C578.454 419.17 577.59 418.223 576.946 416.966C576.31 415.701 575.991 414.117 575.991 412.216C575.991 410.299 576.31 408.682 576.946 407.364C577.59 406.038 578.457 405.034 579.548 404.352C580.639 403.663 581.855 403.318 583.196 403.318C584.219 403.318 585.06 403.492 585.719 403.841C586.385 404.182 586.916 404.595 587.31 405.08C587.704 405.557 588.003 406.008 588.207 406.432H588.435V403.545H592.491V421.284C592.491 422.777 592.135 424.011 591.423 424.989C590.711 425.966 589.738 426.697 588.503 427.182C587.268 427.667 585.866 427.909 584.298 427.909ZM584.332 417.523C585.204 417.523 585.946 417.311 586.56 416.886C587.173 416.462 587.639 415.852 587.957 415.057C588.276 414.261 588.435 413.307 588.435 412.193C588.435 411.095 588.276 410.133 587.957 409.307C587.647 408.481 587.185 407.841 586.571 407.386C585.965 406.924 585.219 406.693 584.332 406.693C583.416 406.693 582.651 406.932 582.037 407.409C581.423 407.886 580.961 408.542 580.651 409.375C580.34 410.201 580.185 411.14 580.185 412.193C580.185 413.261 580.34 414.197 580.651 415C580.969 415.795 581.435 416.417 582.048 416.864C582.67 417.303 583.431 417.523 584.332 417.523ZM613.361 403.545V406.727H603.327V403.545H613.361ZM605.804 399.364H609.918V415.75C609.918 416.303 610.001 416.727 610.168 417.023C610.342 417.311 610.569 417.508 610.849 417.614C611.13 417.72 611.44 417.773 611.781 417.773C612.039 417.773 612.274 417.754 612.486 417.716C612.705 417.678 612.872 417.644 612.986 417.614L613.679 420.83C613.459 420.905 613.145 420.989 612.736 421.08C612.334 421.17 611.842 421.223 611.259 421.239C610.228 421.269 609.3 421.114 608.474 420.773C607.649 420.424 606.993 419.886 606.509 419.159C606.031 418.432 605.796 417.523 605.804 416.432V399.364ZM627.926 413.659V403.545H632.04V421H628.051V417.898H627.869C627.475 418.875 626.828 419.674 625.926 420.295C625.032 420.917 623.93 421.227 622.619 421.227C621.475 421.227 620.464 420.973 619.585 420.466C618.714 419.951 618.032 419.205 617.54 418.227C617.047 417.242 616.801 416.053 616.801 414.659V403.545H620.915V414.023C620.915 415.129 621.218 416.008 621.824 416.659C622.43 417.311 623.225 417.636 624.21 417.636C624.816 417.636 625.403 417.489 625.972 417.193C626.54 416.898 627.006 416.458 627.369 415.875C627.741 415.284 627.926 414.545 627.926 413.659ZM644.986 403.545V406.727H634.952V403.545H644.986ZM637.429 399.364H641.543V415.75C641.543 416.303 641.626 416.727 641.793 417.023C641.967 417.311 642.194 417.508 642.474 417.614C642.755 417.72 643.065 417.773 643.406 417.773C643.664 417.773 643.899 417.754 644.111 417.716C644.33 417.678 644.497 417.644 644.611 417.614L645.304 420.83C645.084 420.905 644.77 420.989 644.361 421.08C643.959 421.17 643.467 421.223 642.884 421.239C641.853 421.269 640.925 421.114 640.099 420.773C639.274 420.424 638.618 419.886 638.134 419.159C637.656 418.432 637.421 417.523 637.429 416.432V399.364ZM659.551 413.659V403.545H663.665V421H659.676V417.898H659.494C659.1 418.875 658.453 419.674 657.551 420.295C656.657 420.917 655.555 421.227 654.244 421.227C653.1 421.227 652.089 420.973 651.21 420.466C650.339 419.951 649.657 419.205 649.165 418.227C648.672 417.242 648.426 416.053 648.426 414.659V403.545H652.54V414.023C652.54 415.129 652.843 416.008 653.449 416.659C654.055 417.311 654.85 417.636 655.835 417.636C656.441 417.636 657.028 417.489 657.597 417.193C658.165 416.898 658.631 416.458 658.994 415.875C659.366 415.284 659.551 414.545 659.551 413.659ZM667.895 427.545V403.545H671.94V406.432H672.179C672.391 406.008 672.69 405.557 673.077 405.08C673.463 404.595 673.986 404.182 674.645 403.841C675.304 403.492 676.145 403.318 677.168 403.318C678.516 403.318 679.732 403.663 680.815 404.352C681.906 405.034 682.77 406.045 683.406 407.386C684.05 408.72 684.372 410.356 684.372 412.295C684.372 414.212 684.058 415.841 683.429 417.182C682.8 418.523 681.944 419.545 680.861 420.25C679.777 420.955 678.55 421.307 677.179 421.307C676.179 421.307 675.349 421.14 674.69 420.807C674.031 420.473 673.501 420.072 673.099 419.602C672.705 419.125 672.399 418.674 672.179 418.25H672.009V427.545H667.895ZM671.929 412.273C671.929 413.402 672.088 414.39 672.406 415.239C672.732 416.087 673.198 416.75 673.804 417.227C674.418 417.697 675.16 417.932 676.031 417.932C676.94 417.932 677.702 417.689 678.315 417.205C678.929 416.712 679.391 416.042 679.702 415.193C680.02 414.337 680.179 413.364 680.179 412.273C680.179 411.189 680.024 410.227 679.713 409.386C679.402 408.545 678.94 407.886 678.327 407.409C677.713 406.932 676.948 406.693 676.031 406.693C675.152 406.693 674.406 406.924 673.793 407.386C673.179 407.848 672.713 408.496 672.395 409.33C672.084 410.163 671.929 411.144 671.929 412.273ZM690.429 421.25C689.74 421.25 689.149 421.008 688.656 420.523C688.164 420.038 687.921 419.447 687.929 418.75C687.921 418.068 688.164 417.485 688.656 417C689.149 416.515 689.74 416.273 690.429 416.273C691.096 416.273 691.675 416.515 692.168 417C692.668 417.485 692.921 418.068 692.929 418.75C692.921 419.212 692.8 419.633 692.565 420.011C692.338 420.39 692.035 420.693 691.656 420.92C691.285 421.14 690.876 421.25 690.429 421.25Z" fill="black"/>
</svg>
